<svg id="visual" viewBox="0 0 540 960" width="540" height="960" xmlns="http://www.w3.org/2000/svg" xmlns:xlink="http://www.w3.org/1999/xlink" version="1.1"><path d="M0 602L6.5 588.7C13 575.3 26 548.7 38.8 523.5C51.7 498.3 64.3 474.7 77.2 463.2C90 451.7 103 452.3 115.8 467.3C128.7 482.3 141.3 511.7 154.2 532.7C167 553.7 180 566.3 192.8 573.5C205.7 580.7 218.3 582.3 231.2 564.3C244 546.3 257 508.7 270 511.2C283 513.7 296 556.3 308.8 571.8C321.7 587.3 334.3 575.7 347.2 572.7C360 569.7 373 575.3 385.8 556.3C398.7 537.3 411.3 493.7 424.2 479C437 464.3 450 478.7 462.8 488.2C475.7 497.7 488.3 502.3 501.2 490.3C514 478.3 527 449.7 533.5 435.3L540 421L540 0L533.5 0C527 0 514 0 501.2 0C488.3 0 475.7 0 462.8 0C450 0 437 0 424.2 0C411.3 0 398.7 0 385.8 0C373 0 360 0 347.2 0C334.3 0 321.7 0 308.8 0C296 0 283 0 270 0C257 0 244 0 231.2 0C218.3 0 205.7 0 192.8 0C180 0 167 0 154.2 0C141.3 0 128.7 0 115.8 0C103 0 90 0 77.2 0C64.3 0 51.7 0 38.8 0C26 0 13 0 6.5 0L0 0Z" fill="#01162e"></path><path d="M0 373L6.5 374.2C13 375.3 26 377.7 38.8 375.3C51.7 373 64.3 366 77.2 357.3C90 348.7 103 338.3 115.8 348.7C128.7 359 141.3 390 154.2 400.5C167 411 180 401 192.8 392.8C205.7 384.7 218.3 378.3 231.2 379.2C244 380 257 388 270 404.8C283 421.7 296 447.3 308.8 456C321.7 464.7 334.3 456.3 347.2 439.8C360 423.3 373 398.7 385.8 403.7C398.7 408.7 411.3 443.3 424.2 443.7C437 444 450 410 462.8 409.8C475.7 409.7 488.3 443.3 501.2 437.7C514 432 527 387 533.5 364.5L540 342L540 0L533.5 0C527 0 514 0 501.2 0C488.3 0 475.7 0 462.8 0C450 0 437 0 424.2 0C411.3 0 398.7 0 385.8 0C373 0 360 0 347.2 0C334.3 0 321.7 0 308.8 0C296 0 283 0 270 0C257 0 244 0 231.2 0C218.3 0 205.7 0 192.8 0C180 0 167 0 154.2 0C141.3 0 128.7 0 115.8 0C103 0 90 0 77.2 0C64.3 0 51.7 0 38.8 0C26 0 13 0 6.5 0L0 0Z" fill="#02203d"></path><path d="M0 245L6.5 264.2C13 283.3 26 321.7 38.8 343.2C51.7 364.7 64.3 369.3 77.2 359.5C90 349.7 103 325.3 115.8 306C128.7 286.7 141.3 272.3 154.2 282.2C167 292 180 326 192.8 326.3C205.7 326.7 218.3 293.3 231.2 287.5C244 281.7 257 303.3 270 316.3C283 329.3 296 333.7 308.8 338.7C321.7 343.7 334.3 349.3 347.2 350.7C360 352 373 349 385.8 340.8C398.7 332.7 411.3 319.3 424.2 302.2C437 285 450 264 462.8 259.3C475.7 254.7 488.3 266.3 501.2 290C514 313.7 527 349.3 533.5 367.2L540 385L540 0L533.5 0C527 0 514 0 501.2 0C488.3 0 475.7 0 462.8 0C450 0 437 0 424.2 0C411.3 0 398.7 0 385.8 0C373 0 360 0 347.2 0C334.3 0 321.7 0 308.8 0C296 0 283 0 270 0C257 0 244 0 231.2 0C218.3 0 205.7 0 192.8 0C180 0 167 0 154.2 0C141.3 0 128.7 0 115.8 0C103 0 90 0 77.2 0C64.3 0 51.7 0 38.8 0C26 0 13 0 6.5 0L0 0Z" fill="#032b4c"></path><path d="M0 143L6.5 164.7C13 186.3 26 229.7 38.8 229.3C51.7 229 64.3 185 77.2 184.5C90 184 103 227 115.8 243.7C128.7 260.3 141.3 250.7 154.2 237C167 223.3 180 205.7 192.8 200C205.7 194.3 218.3 200.7 231.2 195.8C244 191 257 175 270 178.5C283 182 296 205 308.8 223.7C321.7 242.3 334.3 256.7 347.2 251.7C360 246.7 373 222.3 385.8 211.5C398.7 200.7 411.3 203.3 424.2 208C437 212.7 450 219.3 462.8 209.7C475.7 200 488.3 174 501.2 171C514 168 527 188 533.5 198L540 208L540 0L533.5 0C527 0 514 0 501.2 0C488.3 0 475.7 0 462.8 0C450 0 437 0 424.2 0C411.3 0 398.7 0 385.8 0C373 0 360 0 347.2 0C334.3 0 321.7 0 308.8 0C296 0 283 0 270 0C257 0 244 0 231.2 0C218.3 0 205.7 0 192.8 0C180 0 167 0 154.2 0C141.3 0 128.7 0 115.8 0C103 0 90 0 77.2 0C64.3 0 51.7 0 38.8 0C26 0 13 0 6.5 0L0 0Z" fill="#03365c"></path><path d="M0 98L6.5 99.7C13 101.3 26 104.7 38.8 117.3C51.7 130 64.3 152 77.2 155.7C90 159.3 103 144.7 115.8 140.3C128.7 136 141.3 142 154.2 131.2C167 120.3 180 92.7 192.8 92.3C205.7 92 218.3 119 231.2 119.2C244 119.3 257 92.7 270 91.7C283 90.7 296 115.3 308.8 120.5C321.7 125.7 334.3 111.3 347.2 115C360 118.7 373 140.3 385.8 136.8C398.7 133.3 411.3 104.7 424.2 95.8C437 87 450 98 462.8 109.8C475.7 121.7 488.3 134.3 501.2 138.7C514 143 527 139 533.5 137L540 135L540 0L533.5 0C527 0 514 0 501.2 0C488.3 0 475.7 0 462.8 0C450 0 437 0 424.2 0C411.3 0 398.7 0 385.8 0C373 0 360 0 347.2 0C334.3 0 321.7 0 308.8 0C296 0 283 0 270 0C257 0 244 0 231.2 0C218.3 0 205.7 0 192.8 0C180 0 167 0 154.2 0C141.3 0 128.7 0 115.8 0C103 0 90 0 77.2 0C64.3 0 51.7 0 38.8 0C26 0 13 0 6.5 0L0 0Z" fill="#01426d"></path></svg>