<svg id="visual" viewBox="0 0 540 960" width="540" height="960" xmlns="http://www.w3.org/2000/svg" xmlns:xlink="http://www.w3.org/1999/xlink" version="1.1"><path d="M0 456L9 453.8C18 451.7 36 447.3 54 446.7C72 446 90 449 108 458.5C126 468 144 484 162 493.3C180 502.7 198 505.3 216 502.2C234 499 252 490 270 516.3C288 542.7 306 604.3 324 610.5C342 616.7 360 567.3 378 564.3C396 561.3 414 604.7 432 615.5C450 626.3 468 604.7 486 608.8C504 613 522 643 531 658L540 673L540 0L531 0C522 0 504 0 486 0C468 0 450 0 432 0C414 0 396 0 378 0C360 0 342 0 324 0C306 0 288 0 270 0C252 0 234 0 216 0C198 0 180 0 162 0C144 0 126 0 108 0C90 0 72 0 54 0C36 0 18 0 9 0L0 0Z" fill="#ff6f61"></path><path d="M0 575L9 569.3C18 563.7 36 552.3 54 549.5C72 546.7 90 552.3 108 549.3C126 546.3 144 534.7 162 536.7C180 538.7 198 554.3 216 556.8C234 559.3 252 548.7 270 521.2C288 493.7 306 449.3 324 425.3C342 401.3 360 397.7 378 426.2C396 454.7 414 515.3 432 549C450 582.7 468 589.3 486 594.7C504 600 522 604 531 606L540 608L540 0L531 0C522 0 504 0 486 0C468 0 450 0 432 0C414 0 396 0 378 0C360 0 342 0 324 0C306 0 288 0 270 0C252 0 234 0 216 0C198 0 180 0 162 0C144 0 126 0 108 0C90 0 72 0 54 0C36 0 18 0 9 0L0 0Z" fill="#ff6760"></path><path d="M0 362L9 359.2C18 356.3 36 350.7 54 352.3C72 354 90 363 108 381.2C126 399.3 144 426.7 162 456.8C180 487 198 520 216 509.7C234 499.3 252 445.7 270 435.7C288 425.7 306 459.3 324 480.7C342 502 360 511 378 498.3C396 485.7 414 451.3 432 421.8C450 392.3 468 367.7 486 390C504 412.3 522 481.7 531 516.3L540 551L540 0L531 0C522 0 504 0 486 0C468 0 450 0 432 0C414 0 396 0 378 0C360 0 342 0 324 0C306 0 288 0 270 0C252 0 234 0 216 0C198 0 180 0 162 0C144 0 126 0 108 0C90 0 72 0 54 0C36 0 18 0 9 0L0 0Z" fill="#ff5e60"></path><path d="M0 448L9 434.7C18 421.3 36 394.7 54 398.7C72 402.7 90 437.3 108 445.3C126 453.3 144 434.7 162 414.8C180 395 198 374 216 385.2C234 396.3 252 439.7 270 456.3C288 473 306 463 324 455.3C342 447.7 360 442.3 378 444.8C396 447.3 414 457.7 432 458.3C450 459 468 450 486 428C504 406 522 371 531 353.5L540 336L540 0L531 0C522 0 504 0 486 0C468 0 450 0 432 0C414 0 396 0 378 0C360 0 342 0 324 0C306 0 288 0 270 0C252 0 234 0 216 0C198 0 180 0 162 0C144 0 126 0 108 0C90 0 72 0 54 0C36 0 18 0 9 0L0 0Z" fill="#ff5560"></path><path d="M0 275L9 285.2C18 295.3 36 315.7 54 316.8C72 318 90 300 108 282.3C126 264.7 144 247.3 162 255.5C180 263.7 198 297.3 216 297.2C234 297 252 263 270 273.3C288 283.7 306 338.3 324 361.5C342 384.7 360 376.3 378 372.3C396 368.3 414 368.7 432 362C450 355.3 468 341.7 486 349.8C504 358 522 388 531 403L540 418L540 0L531 0C522 0 504 0 486 0C468 0 450 0 432 0C414 0 396 0 378 0C360 0 342 0 324 0C306 0 288 0 270 0C252 0 234 0 216 0C198 0 180 0 162 0C144 0 126 0 108 0C90 0 72 0 54 0C36 0 18 0 9 0L0 0Z" fill="#ff4b60"></path><path d="M0 276L9 278.3C18 280.7 36 285.3 54 273C72 260.7 90 231.3 108 235.5C126 239.7 144 277.3 162 278.2C180 279 198 243 216 225.2C234 207.3 252 207.7 270 215.3C288 223 306 238 324 246.7C342 255.3 360 257.7 378 268.7C396 279.7 414 299.3 432 306.2C450 313 468 307 486 290.7C504 274.3 522 247.7 531 234.3L540 221L540 0L531 0C522 0 504 0 486 0C468 0 450 0 432 0C414 0 396 0 378 0C360 0 342 0 324 0C306 0 288 0 270 0C252 0 234 0 216 0C198 0 180 0 162 0C144 0 126 0 108 0C90 0 72 0 54 0C36 0 18 0 9 0L0 0Z" fill="#ff4061"></path><path d="M0 186L9 186C18 186 36 186 54 194C72 202 90 218 108 219.7C126 221.3 144 208.7 162 200.7C180 192.7 198 189.3 216 190C234 190.7 252 195.3 270 203.7C288 212 306 224 324 212.8C342 201.7 360 167.3 378 150.7C396 134 414 135 432 144.8C450 154.7 468 173.3 486 183.8C504 194.3 522 196.7 531 197.8L540 199L540 0L531 0C522 0 504 0 486 0C468 0 450 0 432 0C414 0 396 0 378 0C360 0 342 0 324 0C306 0 288 0 270 0C252 0 234 0 216 0C198 0 180 0 162 0C144 0 126 0 108 0C90 0 72 0 54 0C36 0 18 0 9 0L0 0Z" fill="#ff3362"></path><path d="M0 101L9 105.5C18 110 36 119 54 122.3C72 125.7 90 123.3 108 119.3C126 115.3 144 109.7 162 117.7C180 125.7 198 147.3 216 143.5C234 139.7 252 110.3 270 101.3C288 92.3 306 103.7 324 104.3C342 105 360 95 378 92.2C396 89.3 414 93.7 432 103.7C450 113.7 468 129.3 486 143.7C504 158 522 171 531 177.5L540 184L540 0L531 0C522 0 504 0 486 0C468 0 450 0 432 0C414 0 396 0 378 0C360 0 342 0 324 0C306 0 288 0 270 0C252 0 234 0 216 0C198 0 180 0 162 0C144 0 126 0 108 0C90 0 72 0 54 0C36 0 18 0 9 0L0 0Z" fill="#ff2264"></path><path d="M0 44L9 50.8C18 57.7 36 71.3 54 77.7C72 84 90 83 108 81.8C126 80.7 144 79.3 162 81C180 82.7 198 87.3 216 88.2C234 89 252 86 270 90.2C288 94.3 306 105.7 324 97.5C342 89.3 360 61.7 378 58.2C396 54.7 414 75.3 432 76.8C450 78.3 468 60.7 486 57.3C504 54 522 65 531 70.5L540 76L540 0L531 0C522 0 504 0 486 0C468 0 450 0 432 0C414 0 396 0 378 0C360 0 342 0 324 0C306 0 288 0 270 0C252 0 234 0 216 0C198 0 180 0 162 0C144 0 126 0 108 0C90 0 72 0 54 0C36 0 18 0 9 0L0 0Z" fill="#ff0066"></path></svg>