<?xml version="1.0" encoding="UTF-8" standalone="no"?>
<!-- Created with Inkscape (http://www.inkscape.org/) -->

<svg
   version="1.1"
   id="svg2"
   width="666.66669"
   height="666.66669"
   viewBox="0 0 666.66669 666.66669"
   sodipodi:docname="6310505.ai"
   xmlns:inkscape="http://www.inkscape.org/namespaces/inkscape"
   xmlns:sodipodi="http://sodipodi.sourceforge.net/DTD/sodipodi-0.dtd"
   xmlns="http://www.w3.org/2000/svg"
   xmlns:svg="http://www.w3.org/2000/svg">
  <defs
     id="defs6">
    <clipPath
       clipPathUnits="userSpaceOnUse"
       id="clipPath28">
      <path
         d="M 0,500 H 500 V 0 H 0 Z"
         id="path26" />
    </clipPath>
    <clipPath
       clipPathUnits="userSpaceOnUse"
       id="clipPath174">
      <path
         d="M 0,500 H 500 V 0 H 0 Z"
         id="path172" />
    </clipPath>
    <clipPath
       clipPathUnits="userSpaceOnUse"
       id="clipPath186">
      <path
         d="M 70.5721,382.808 H 432.995 V 109.523 H 70.5721 Z"
         id="path184" />
    </clipPath>
    <clipPath
       clipPathUnits="userSpaceOnUse"
       id="clipPath202">
      <path
         d="M 0,500 H 500 V 0 H 0 Z"
         id="path200" />
    </clipPath>
    <clipPath
       clipPathUnits="userSpaceOnUse"
       id="clipPath214">
      <path
         d="M 0,500 H 500 V 0 H 0 Z"
         id="path212" />
    </clipPath>
    <clipPath
       clipPathUnits="userSpaceOnUse"
       id="clipPath230">
      <path
         d="M 208.186,354.174 H 372.195 V 90.9241 H 208.186 Z"
         id="path228" />
    </clipPath>
    <clipPath
       clipPathUnits="userSpaceOnUse"
       id="clipPath246">
      <path
         d="M 213.588,348.793 H 366.793 V 96.3049 H 213.588 Z"
         id="path244" />
    </clipPath>
    <clipPath
       clipPathUnits="userSpaceOnUse"
       id="clipPath270">
      <path
         d="m 296.25,349.082 h 9.218 V 339.9 h -9.218 z"
         id="path268" />
    </clipPath>
    <clipPath
       clipPathUnits="userSpaceOnUse"
       id="clipPath286">
      <path
         d="m 298.341,346.999 h 5.036 v -5.016 h -5.036 z"
         id="path284" />
    </clipPath>
    <clipPath
       clipPathUnits="userSpaceOnUse"
       id="clipPath302">
      <path
         d="m 341.536,345.294 h 13.968 v -8.461 h -13.968 z"
         id="path300" />
    </clipPath>
    <clipPath
       clipPathUnits="userSpaceOnUse"
       id="clipPath326">
      <path
         d="m 243.182,341.983 h 11.562 v -5.15 h -11.562 z"
         id="path324" />
    </clipPath>
    <clipPath
       clipPathUnits="userSpaceOnUse"
       id="clipPath374">
      <path
         d="m 280.382,143.432 h 8.103 v -17.729 h -8.103 z"
         id="path372" />
    </clipPath>
    <clipPath
       clipPathUnits="userSpaceOnUse"
       id="clipPath434">
      <path
         d="M 0,500 H 500 V 0 H 0 Z"
         id="path432" />
    </clipPath>
    <clipPath
       clipPathUnits="userSpaceOnUse"
       id="clipPath442">
      <path
         d="m 213.452,338.626 h 67.756 V 161.159 h -67.756 z"
         id="path440" />
    </clipPath>
    <clipPath
       clipPathUnits="userSpaceOnUse"
       id="clipPath462">
      <path
         d="M 0,500 H 500 V 0 H 0 Z"
         id="path460" />
    </clipPath>
    <clipPath
       clipPathUnits="userSpaceOnUse"
       id="clipPath470">
      <path
         d="M 139.005,348.626 H 277.208 V 171.159 H 139.005 Z"
         id="path468" />
    </clipPath>
    <clipPath
       clipPathUnits="userSpaceOnUse"
       id="clipPath486">
      <path
         d="M 151.426,348.626 H 277.208 V 313.132 H 151.426 Z"
         id="path484" />
    </clipPath>
    <clipPath
       clipPathUnits="userSpaceOnUse"
       id="clipPath502">
      <path
         d="M 145.216,277.639 H 270.998 V 242.146 H 145.216 Z"
         id="path500" />
    </clipPath>
    <clipPath
       clipPathUnits="userSpaceOnUse"
       id="clipPath518">
      <path
         d="M 139.005,206.653 H 264.787 V 171.159 H 139.005 Z"
         id="path516" />
    </clipPath>
    <clipPath
       clipPathUnits="userSpaceOnUse"
       id="clipPath534">
      <path
         d="m 179.656,299.072 h 74.817 V 273.22 h -74.817 z"
         id="path532" />
    </clipPath>
    <clipPath
       clipPathUnits="userSpaceOnUse"
       id="clipPath558">
      <path
         d="m 230.31,302.596 h 23.179 V 276.744 H 230.31 Z"
         id="path556" />
    </clipPath>
    <clipPath
       clipPathUnits="userSpaceOnUse"
       id="clipPath574">
      <path
         d="m 230.31,302.596 h 11.589 V 276.744 H 230.31 Z"
         id="path572" />
    </clipPath>
    <clipPath
       clipPathUnits="userSpaceOnUse"
       id="clipPath602">
      <path
         d="M 0,500 H 500 V 0 H 0 Z"
         id="path600" />
    </clipPath>
    <clipPath
       clipPathUnits="userSpaceOnUse"
       id="clipPath674">
      <path
         d="m 141.086,296.709 h 4.796 v -14.832 h -4.796 z"
         id="path672" />
    </clipPath>
    <clipPath
       clipPathUnits="userSpaceOnUse"
       id="clipPath694">
      <path
         d="m 138.185,308.717 h 38.207 v -56.145 h -38.207 z"
         id="path692" />
    </clipPath>
    <clipPath
       clipPathUnits="userSpaceOnUse"
       id="clipPath710">
      <path
         d="m 169.379,296.182 h 7.012 v -19.524 h -7.012 z"
         id="path708" />
    </clipPath>
    <clipPath
       clipPathUnits="userSpaceOnUse"
       id="clipPath726">
      <path
         d="m 157.041,107.598 h 7.587 v -7.485 h -7.587 z"
         id="path724" />
    </clipPath>
    <clipPath
       clipPathUnits="userSpaceOnUse"
       id="clipPath742">
      <path
         d="m 113.058,109.383 h 9.603 v -7.76 h -9.603 z"
         id="path740" />
    </clipPath>
    <clipPath
       clipPathUnits="userSpaceOnUse"
       id="clipPath770">
      <path
         d="m 111.516,108.224 h 14.721 v -6.53 h -14.721 z"
         id="path768" />
    </clipPath>
    <clipPath
       clipPathUnits="userSpaceOnUse"
       id="clipPath786">
      <path
         d="m 150.303,235.564 h 8.839 v -48.142 h -8.839 z"
         id="path784" />
    </clipPath>
    <clipPath
       clipPathUnits="userSpaceOnUse"
       id="clipPath810">
      <path
         d="m 154.384,105.793 h 13.872 v -4.409 h -13.872 z"
         id="path808" />
    </clipPath>
    <clipPath
       clipPathUnits="userSpaceOnUse"
       id="clipPath830">
      <path
         d="m 161.007,321.761 h 5.512 v -5.652 h -5.512 z"
         id="path828" />
    </clipPath>
  </defs>
  <sodipodi:namedview
     id="namedview4"
     pagecolor="#ffffff"
     bordercolor="#000000"
     borderopacity="0.25"
     inkscape:showpageshadow="2"
     inkscape:pageopacity="0.0"
     inkscape:pagecheckerboard="0"
     inkscape:deskcolor="#d1d1d1" />
  <g
     id="g8"
     inkscape:groupmode="layer"
     inkscape:label="6310505"
     transform="matrix(1.3333333,0,0,-1.3333333,0,666.66667)">
    <path
       d="m 416.779,101.256 h 33.122 v 0.249 h -33.122 z"
       style="fill:#ececec;fill-opacity:1;fill-rule:nonzero;stroke:none"
       id="path10" />
    <path
       d="m 322.527,98.542 h 8.693 v 0.25 h -8.693 z"
       style="fill:#ececec;fill-opacity:1;fill-rule:nonzero;stroke:none"
       id="path12" />
    <path
       d="m 396.586,110.542 h 19.192 v 0.25 h -19.192 z"
       style="fill:#ececec;fill-opacity:1;fill-rule:nonzero;stroke:none"
       id="path14" />
    <path
       d="m 52.459,108.861 h 43.193 v 0.25 H 52.459 Z"
       style="fill:#ececec;fill-opacity:1;fill-rule:nonzero;stroke:none"
       id="path16" />
    <path
       d="m 104.556,108.861 h 6.333 v 0.25 h -6.333 z"
       style="fill:#ececec;fill-opacity:1;fill-rule:nonzero;stroke:none"
       id="path18" />
    <path
       d="m 131.471,104.639 h 93.676 v 0.25 h -93.676 z"
       style="fill:#ececec;fill-opacity:1;fill-rule:nonzero;stroke:none"
       id="path20" />
    <g
       id="g22">
      <g
         id="g24"
         clip-path="url(#clipPath28)">
        <path
           d="M 500,117.352 H 0 v 0.25 h 500 z"
           style="fill:#ececec;fill-opacity:1;fill-rule:nonzero;stroke:none"
           id="path38" />
        <g
           id="g40"
           transform="translate(119.3311,185.25)">
          <path
             d="M 0,0 C -0.845,9.658 -10.705,13.274 -22.387,12.252 -34.069,11.229 -43.151,5.957 -42.306,-3.701 Z"
             style="fill:#f0f0f0;fill-opacity:1;fill-rule:nonzero;stroke:none"
             id="path42" />
        </g>
        <g
           id="g44"
           transform="translate(96.5581,201.915)">
          <path
             d="M 0,0 C 5.421,0.474 7.152,5.055 6.678,10.476 6.204,15.897 3.704,20.107 -1.718,19.633 -7.14,19.159 -8.871,14.579 -8.396,9.157 -7.922,3.735 -5.422,-0.475 0,0"
             style="fill:#f0f0f0;fill-opacity:1;fill-rule:nonzero;stroke:none"
             id="path46" />
        </g>
        <g
           id="g48"
           transform="translate(340.1006,391.0288)">
          <path
             d="m 0,0 c 0.261,-2.99 -1.95,-5.626 -4.94,-5.887 -2.991,-0.262 -5.626,1.95 -5.888,4.94 -0.261,2.99 1.95,5.626 4.94,5.887 C -2.898,5.202 -0.262,2.99 0,0"
             style="fill:#f5f5f5;fill-opacity:1;fill-rule:nonzero;stroke:none"
             id="path50" />
        </g>
        <g
           id="g52"
           transform="translate(370.1733,393.6602)">
          <path
             d="m 0,0 c 0.261,-2.99 -1.951,-5.626 -4.94,-5.888 -2.991,-0.261 -5.626,1.95 -5.888,4.94 -0.262,2.99 1.95,5.626 4.94,5.888 C -2.898,5.202 -0.262,2.99 0,0"
             style="fill:#f5f5f5;fill-opacity:1;fill-rule:nonzero;stroke:none"
             id="path54" />
        </g>
        <g
           id="g56"
           transform="translate(400.2456,396.291)">
          <path
             d="m 0,0 c 0.262,-2.99 -1.95,-5.626 -4.94,-5.888 -2.99,-0.261 -5.626,1.95 -5.888,4.941 -0.261,2.989 1.951,5.626 4.941,5.887 C -2.897,5.202 -0.261,2.99 0,0"
             style="fill:#f5f5f5;fill-opacity:1;fill-rule:nonzero;stroke:none"
             id="path58" />
        </g>
        <g
           id="g60"
           transform="translate(342.7822,360.3765)">
          <path
             d="m 0,0 c 0.262,-2.99 -1.95,-5.626 -4.94,-5.888 -2.99,-0.261 -5.626,1.95 -5.888,4.941 -0.261,2.99 1.951,5.626 4.94,5.887 C -2.897,5.202 -0.262,2.99 0,0"
             style="fill:#f5f5f5;fill-opacity:1;fill-rule:nonzero;stroke:none"
             id="path62" />
        </g>
        <g
           id="g64"
           transform="translate(372.855,363.0073)">
          <path
             d="m 0,0 c 0.261,-2.99 -1.95,-5.626 -4.94,-5.887 -2.99,-0.262 -5.626,1.95 -5.888,4.94 -0.261,2.99 1.951,5.626 4.94,5.887 C -2.897,5.202 -0.262,2.99 0,0"
             style="fill:#f5f5f5;fill-opacity:1;fill-rule:nonzero;stroke:none"
             id="path66" />
        </g>
        <g
           id="g68"
           transform="translate(402.9277,365.6387)">
          <path
             d="m 0,0 c 0.261,-2.99 -1.95,-5.626 -4.94,-5.888 -2.99,-0.261 -5.626,1.95 -5.888,4.941 -0.261,2.989 1.95,5.626 4.94,5.887 C -2.897,5.202 -0.262,2.99 0,0"
             style="fill:#f5f5f5;fill-opacity:1;fill-rule:nonzero;stroke:none"
             id="path70" />
        </g>
        <g
           id="g72"
           transform="translate(345.4639,329.7241)">
          <path
             d="m 0,0 c 0.262,-2.99 -1.95,-5.626 -4.94,-5.888 -2.99,-0.261 -5.626,1.95 -5.888,4.941 -0.261,2.989 1.951,5.626 4.94,5.887 C -2.897,5.202 -0.262,2.99 0,0"
             style="fill:#f5f5f5;fill-opacity:1;fill-rule:nonzero;stroke:none"
             id="path74" />
        </g>
        <g
           id="g76"
           transform="translate(375.5366,332.355)">
          <path
             d="m 0,0 c 0.262,-2.99 -1.95,-5.626 -4.94,-5.887 -2.99,-0.262 -5.626,1.95 -5.888,4.94 -0.261,2.99 1.951,5.626 4.94,5.887 C -2.897,5.202 -0.262,2.99 0,0"
             style="fill:#f5f5f5;fill-opacity:1;fill-rule:nonzero;stroke:none"
             id="path78" />
        </g>
        <g
           id="g80"
           transform="translate(405.6094,334.9863)">
          <path
             d="m 0,0 c 0.262,-2.99 -1.95,-5.626 -4.94,-5.888 -2.99,-0.261 -5.626,1.95 -5.888,4.94 -0.261,2.99 1.951,5.626 4.94,5.888 C -2.897,5.202 -0.262,2.99 0,0"
             style="fill:#f5f5f5;fill-opacity:1;fill-rule:nonzero;stroke:none"
             id="path82" />
        </g>
        <g
           id="g84"
           transform="translate(399.1118,333.2212)">
          <path
             d="m 0,0 -61.786,-5.406 54.782,66.567 -56.13,-4.911 c -0.656,-0.057 -1.234,0.428 -1.291,1.084 -0.057,0.656 0.427,1.234 1.084,1.291 L -1.555,64.031 -56.337,-2.536 -0.208,2.375 C 0.448,2.432 1.026,1.947 1.083,1.291 1.141,0.635 0.656,0.057 0,0"
             style="fill:#e7e7e7;fill-opacity:1;fill-rule:nonzero;stroke:none"
             id="path86" />
        </g>
        <g
           id="g88"
           transform="translate(400.0596,214.3945)">
          <path
             d="m 0,0 c -0.205,0.589 -0.731,1.025 -1.353,1.067 -2.834,0.19 -5.228,1.25 -7.123,3.154 -2.471,2.48 -3.925,6.257 -4.16,10.739 -0.043,0.835 -0.744,1.486 -1.58,1.491 v 0 c -0.926,0.007 -1.664,-0.775 -1.614,-1.7 0.285,-5.258 2.063,-9.754 5.085,-12.789 2.362,-2.371 5.407,-3.76 8.877,-4.064 0.06,-0.004 0.138,-0.011 0.228,-0.018 C -0.49,-2.213 0.378,-1.091 0,0"
             style="fill:#f0f0f0;fill-opacity:1;fill-rule:nonzero;stroke:none"
             id="path90" />
        </g>
        <g
           id="g92"
           transform="translate(396.8638,195.2002)">
          <path
             d="m 0,0 c -13.254,1.159 -22.811,10.193 -25.836,24.289 -0.193,0.899 0.38,1.783 1.287,1.941 v 0 c 0.837,0.145 1.654,-0.385 1.832,-1.215 2.711,-12.677 11.218,-20.796 22.996,-21.827 12.917,-1.129 26.79,7.369 29.275,28.792 0.101,0.869 0.858,1.509 1.728,1.433 0.891,-0.077 1.559,-0.873 1.454,-1.761 C 30.354,11.453 17.073,-1.494 0,0"
             style="fill:#f0f0f0;fill-opacity:1;fill-rule:nonzero;stroke:none"
             id="path94" />
        </g>
        <g
           id="g96"
           transform="translate(371.8594,233.5381)">
          <path
             d="M 0,0 V 0 C -0.891,0.078 -1.559,0.873 -1.454,1.761 0.928,21.961 14.209,34.907 31.282,33.413 46.241,32.104 56.327,20.905 57.898,4.035 57.981,3.145 57.29,2.368 56.397,2.314 H 56.395 C 55.524,2.263 54.789,2.921 54.706,3.789 53.264,18.987 44.288,29.062 31.003,30.225 18.086,31.354 4.213,22.857 1.728,1.433 1.627,0.564 0.871,-0.076 0,0"
             style="fill:#f0f0f0;fill-opacity:1;fill-rule:nonzero;stroke:none"
             id="path98" />
        </g>
        <g
           id="g100"
           transform="translate(397.5146,203.7686)">
          <path
             d="m 0,0 c -2.464,0.216 -4.774,0.791 -6.896,1.718 -0.863,0.377 -1.219,1.416 -0.768,2.243 0.393,0.721 1.27,1.032 2.022,0.702 1.994,-0.876 4.198,-1.391 6.573,-1.521 9.797,-0.561 20.136,6.378 21.15,23.144 0.625,10.326 -2.913,18.666 -9.517,22.656 -0.708,0.428 -0.971,1.324 -0.606,2.066 0.415,0.843 1.467,1.154 2.271,0.669 C 21.871,47.063 25.975,37.648 25.277,26.094 24.299,9.927 14.212,-0.825 0.748,-0.055 0.497,-0.04 0.248,-0.021 0,0"
             style="fill:#f0f0f0;fill-opacity:1;fill-rule:nonzero;stroke:none"
             id="path102" />
        </g>
        <g
           id="g104"
           transform="translate(383.2661,213.7422)">
          <path
             d="m 0,0 c -0.774,-0.528 -1.832,-0.282 -2.301,0.529 -2.836,4.905 -4.161,11.228 -3.751,18.019 0.935,15.466 10.207,25.976 22.798,26.183 0.934,0.015 1.689,-0.766 1.636,-1.699 L 18.381,43.028 C 18.334,42.196 17.657,41.543 16.825,41.526 7.488,41.343 -1.894,34.284 -2.856,18.354 -3.23,12.171 -2.047,6.464 0.488,2.1 0.905,1.383 0.685,0.468 0,0"
             style="fill:#f0f0f0;fill-opacity:1;fill-rule:nonzero;stroke:none"
             id="path106" />
        </g>
        <g
           id="g108"
           transform="translate(405.1299,215.0498)">
          <path
             d="m 0,0 v 0 c -0.326,0.741 -0.041,1.598 0.653,2.016 4.205,2.531 6.788,7.845 6.832,14.251 0.035,5.13 -1.454,9.47 -4.193,12.22 -2.112,2.121 -4.843,3.191 -8.116,3.184 -4.93,-0.013 -8.923,-2.714 -11.134,-7.467 -0.349,-0.748 -1.215,-1.101 -1.989,-0.817 -0.882,0.323 -1.301,1.339 -0.902,2.189 2.736,5.839 7.869,9.28 14.016,9.296 4.1,0.007 7.694,-1.416 10.394,-4.126 3.345,-3.36 5.166,-8.51 5.125,-14.502 C 10.635,8.686 7.451,2.35 2.265,-0.751 1.449,-1.239 0.383,-0.871 0,0"
             style="fill:#f0f0f0;fill-opacity:1;fill-rule:nonzero;stroke:none"
             id="path110" />
        </g>
        <g
           id="g112"
           transform="translate(393.6084,226.8076)">
          <path
             d="m 0,0 c -0.909,-0.365 -1.926,0.163 -2.159,1.114 -0.106,0.433 -0.194,0.88 -0.263,1.339 -0.906,5.985 2.311,11.194 7.483,12.118 2.669,0.479 5.049,-0.148 6.868,-1.773 0.739,-0.659 0.681,-1.837 -0.124,-2.414 L 11.706,10.313 C 11.099,9.878 10.301,9.977 9.735,10.463 8.65,11.394 7.272,11.716 5.624,11.421 1.683,10.716 0.185,6.616 0.743,2.931 0.797,2.572 0.865,2.225 0.947,1.89 1.138,1.104 0.75,0.301 0,0"
             style="fill:#f0f0f0;fill-opacity:1;fill-rule:nonzero;stroke:none"
             id="path114" />
        </g>
        <g
           id="g116"
           transform="translate(398.897,220.6494)">
          <path
             d="M 0,0 C -0.004,0.001 -0.009,0.001 -0.014,0.001 -1.117,0.1 -1.726,1.336 -1.137,2.274 l 0.136,0.217 C -0.706,2.962 -0.179,3.22 0.375,3.182 0.848,3.149 1.351,3.18 1.876,3.273 5.317,3.89 6.896,7.094 6.869,10.35 6.863,11.162 7.425,11.864 8.229,11.986 9.167,12.128 10.055,11.43 10.072,10.48 10.167,5.262 7.096,0.955 2.439,0.123 1.599,-0.027 0.782,-0.068 0,0"
             style="fill:#f0f0f0;fill-opacity:1;fill-rule:nonzero;stroke:none"
             id="path118" />
        </g>
        <g
           id="g120"
           transform="translate(399.6074,226.5586)">
          <path
             d="m 0,0 c -1.704,0.148 -2.974,1.297 -3.435,2.936 -0.267,0.95 0.529,1.87 1.512,1.784 l 0.367,-0.033 c 0.57,-0.049 1.041,-0.44 1.231,-0.979 0.093,-0.265 0.27,-0.49 0.604,-0.52 C 1.048,3.121 1.184,4.225 1.203,4.446 1.217,4.604 1.25,5.218 0.988,5.578 0.73,5.933 0.555,6.338 0.593,6.773 0.717,8.197 2.516,8.769 3.422,7.665 4.143,6.787 4.514,5.558 4.392,4.168 4.163,1.55 2.316,-0.203 0,0"
             style="fill:#f0f0f0;fill-opacity:1;fill-rule:nonzero;stroke:none"
             id="path122" />
        </g>
        <g
           id="g124"
           transform="translate(369.5337,262.3467)">
          <path
             d="M 0,0 V 0 C -0.88,0.077 -1.532,0.854 -1.455,1.734 L -0.242,15.6 13.624,14.387 c 0.88,-0.077 1.532,-0.854 1.455,-1.734 -0.077,-0.881 -0.853,-1.532 -1.734,-1.455 L 2.668,12.132 1.734,1.455 C 1.657,0.574 0.881,-0.077 0,0"
             style="fill:#f0f0f0;fill-opacity:1;fill-rule:nonzero;stroke:none"
             id="path126" />
        </g>
        <g
           id="g128"
           transform="translate(435.4624,256.5791)">
          <path
             d="m 0,0 v 0 c -0.881,0.077 -1.532,0.854 -1.455,1.733 l 0.934,10.677 -10.677,0.935 c -0.881,0.076 -1.532,0.853 -1.455,1.734 0.077,0.88 0.854,1.531 1.734,1.455 L 2.947,15.32 1.734,1.455 C 1.657,0.574 0.88,-0.077 0,0"
             style="fill:#f0f0f0;fill-opacity:1;fill-rule:nonzero;stroke:none"
             id="path130" />
        </g>
        <g
           id="g132"
           transform="translate(430.5469,182.0303)">
          <path
             d="m 0,0 -13.866,1.213 c -0.881,0.077 -1.532,0.853 -1.455,1.733 0.077,0.881 0.854,1.533 1.734,1.455 L -2.91,3.468 -1.976,14.145 c 0.077,0.88 0.853,1.532 1.734,1.455 0.881,-0.078 1.532,-0.854 1.455,-1.735 z"
             style="fill:#f0f0f0;fill-opacity:1;fill-rule:nonzero;stroke:none"
             id="path134" />
        </g>
        <g
           id="g136"
           transform="translate(375.2949,186.8633)">
          <path
             d="m 0,0 -13.866,1.214 1.214,13.866 c 0.076,0.88 0.853,1.531 1.734,1.454 0.88,-0.076 1.531,-0.852 1.455,-1.733 L -10.397,4.123 0.279,3.189 C 1.16,3.112 1.811,2.336 1.734,1.455 1.657,0.575 0.881,-0.076 0,0"
             style="fill:#f0f0f0;fill-opacity:1;fill-rule:nonzero;stroke:none"
             id="path138" />
        </g>
        <g
           id="g140"
           transform="translate(74.73,216.874)">
          <path
             d="M 0,0 V 0 C -0.542,-0.048 -1.019,0.353 -1.066,0.895 L -1.812,9.42 6.713,10.165 C 7.255,10.213 7.732,9.813 7.779,9.271 7.827,8.729 7.426,8.252 6.885,8.204 L 0.32,7.63 0.895,1.065 C 0.942,0.524 0.541,0.047 0,0"
             style="fill:#e1e1e1;fill-opacity:1;fill-rule:nonzero;stroke:none"
             id="path142" />
        </g>
        <g
           id="g144"
           transform="translate(115.2661,220.4199)">
          <path
             d="M 0,0 V 0 C -0.542,-0.047 -1.019,0.354 -1.066,0.895 L -1.64,7.459 -8.205,6.885 c -0.542,-0.047 -1.019,0.353 -1.066,0.894 -0.047,0.542 0.353,1.019 0.895,1.067 L 0.149,9.592 0.895,1.066 C 0.942,0.524 0.542,0.048 0,0"
             style="fill:#e1e1e1;fill-opacity:1;fill-rule:nonzero;stroke:none"
             id="path146" />
        </g>
        <g
           id="g148"
           transform="translate(119.4658,183.71)">
          <path
             d="m 0,0 -8.525,-0.745 c -0.542,-0.048 -1.019,0.352 -1.067,0.894 -0.047,0.541 0.354,1.019 0.895,1.066 l 6.565,0.575 -0.575,6.564 c -0.047,0.542 0.353,1.019 0.895,1.067 0.541,0.047 1.019,-0.354 1.066,-0.895 z"
             style="fill:#e1e1e1;fill-opacity:1;fill-rule:nonzero;stroke:none"
             id="path150" />
        </g>
        <g
           id="g152"
           transform="translate(85.4941,180.7383)">
          <path
             d="m 0,0 -8.525,-0.746 -0.746,8.525 c -0.048,0.542 0.353,1.02 0.894,1.067 0.542,0.048 1.019,-0.354 1.066,-0.895 l 0.575,-6.564 6.564,0.574 C 0.37,2.008 0.847,1.607 0.895,1.066 0.942,0.524 0.542,0.047 0,0"
             style="fill:#e1e1e1;fill-opacity:1;fill-rule:nonzero;stroke:none"
             id="path154" />
        </g>
        <g
           id="g156"
           transform="translate(100.7217,338.5225)">
          <path
             d="m 0,0 0.803,-9.175 c 0.132,-1.506 -0.983,-2.833 -2.489,-2.965 -1.505,-0.131 -2.833,0.982 -2.964,2.488 l -0.803,9.174 C -6.651,0.261 -7.506,1.524 -7.638,3.034 -7.86,5.569 -5.984,7.804 -3.45,8.025 -0.915,8.247 1.32,6.372 1.542,3.837 1.674,2.327 1.052,0.935 0,0 m 13.861,20.529 -32.631,-2.854 -0.668,7.636 c -0.693,7.921 5.188,14.93 13.109,15.623 7.922,0.692 14.931,-5.188 15.623,-13.11 l 0.389,-4.437 4.707,0.412 -0.388,4.437 C 13.082,38.754 3.777,46.562 -6.741,45.642 -17.258,44.721 -25.066,35.417 -24.146,24.898 l 0.672,-7.679 c -3.797,-0.74 -6.5,-4.241 -6.155,-8.181 l 2.331,-26.643 c 0.368,-4.213 4.082,-7.33 8.295,-6.961 l 36.53,3.196 c 4.213,0.369 7.329,4.082 6.96,8.295 l -2.331,26.644 c -0.368,4.213 -4.082,7.329 -8.295,6.96"
             style="fill:#ececec;fill-opacity:1;fill-rule:nonzero;stroke:none"
             id="path158" />
        </g>
        <g
           id="g160"
           transform="translate(164.3813,359.3999)">
          <path
             d="m 0,0 c -4.468,0.126 -8.194,3.85 -8.322,8.318 -0.129,4.503 3.236,8.264 7.579,8.765 0.525,0.061 0.989,-0.35 0.989,-0.878 0,-0.444 -0.331,-0.818 -0.772,-0.868 -3.829,-0.434 -6.707,-4.056 -5.905,-8.14 0.52,-2.652 2.658,-4.788 5.31,-5.307 4.353,-0.851 8.18,2.475 8.18,6.679 0,1.407 -0.434,2.769 -1.233,3.91 -0.253,0.359 -0.184,0.852 0.145,1.143 0.396,0.349 1.011,0.275 1.312,-0.158 C 8.278,12.035 8.818,10.329 8.818,8.569 8.818,3.76 4.838,-0.136 0,0 m 21.581,-4.543 -2.26,0.541 c -0.472,0.113 -0.764,0.588 -0.651,1.061 0.114,0.472 0.588,0.763 1.061,0.65 l 0.977,-0.234 c 0.774,1.425 1.396,2.923 1.854,4.467 l -5.252,3.223 0.095,0.583 c 0.168,1.03 0.249,1.952 0.249,2.821 0,0.868 -0.081,1.79 -0.249,2.821 l -0.095,0.584 5.252,3.22 c -0.458,1.545 -1.08,3.042 -1.854,4.468 l -5.986,-1.434 -0.345,0.479 c -1.106,1.536 -2.452,2.883 -3.988,3.989 l -0.484,0.348 1.435,5.985 C 9.915,29.804 8.417,30.426 6.872,30.885 L 3.65,25.632 3.068,25.727 c -1.869,0.303 -3.775,0.303 -5.643,0 l -0.583,-0.095 -3.221,5.252 c -0.201,-0.059 -0.401,-0.121 -0.6,-0.186 -0.446,-0.146 -0.926,0.094 -1.087,0.533 -0.17,0.463 0.07,0.985 0.539,1.139 0.439,0.143 0.881,0.274 1.323,0.391 l 0.634,0.17 3.299,-5.379 c 1.794,0.249 3.24,0.249 5.035,0 l 3.299,5.379 0.634,-0.169 c 2.125,-0.566 4.176,-1.417 6.095,-2.53 l 0.566,-0.329 -1.468,-6.13 c 1.339,-1.027 2.534,-2.221 3.561,-3.562 l 6.13,1.469 0.328,-0.566 c 1.113,-1.919 1.965,-3.969 2.53,-6.096 l 0.169,-0.633 -5.379,-3.298 c 0.125,-0.896 0.185,-1.725 0.185,-2.518 0,-0.794 -0.06,-1.622 -0.185,-2.518 L 24.608,2.752 24.439,2.119 c -0.565,-2.127 -1.417,-4.177 -2.53,-6.096 z m -35.737,0.491 c -0.278,0.316 -0.546,0.643 -0.802,0.977 l -6.13,-1.468 -0.329,0.566 c -1.113,1.919 -1.964,3.969 -2.53,6.096 l -0.168,0.633 5.378,3.299 c -0.124,0.896 -0.184,1.724 -0.184,2.518 0,0.793 0.06,1.622 0.184,2.518 l -5.378,3.298 0.168,0.633 c 0.566,2.127 1.417,4.177 2.53,6.096 l 0.329,0.566 6.13,-1.469 c 1.026,1.341 2.221,2.535 3.561,3.562 l -1.111,4.639 c -0.113,0.471 0.177,0.945 0.649,1.059 h 0.003 c 0.472,0.113 0.946,-0.177 1.059,-0.649 l 1.384,-5.778 -0.483,-0.348 c -1.536,-1.106 -2.883,-2.453 -3.988,-3.989 l -0.345,-0.479 -5.986,1.434 c -0.774,-1.426 -1.396,-2.923 -1.854,-4.468 l 5.252,-3.22 -0.095,-0.584 c -0.168,-1.031 -0.25,-1.953 -0.25,-2.821 0,-0.869 0.082,-1.791 0.25,-2.821 l 0.095,-0.583 -5.252,-3.223 c 0.458,-1.544 1.08,-3.042 1.854,-4.467 l 5.986,1.434 0.345,-0.479 c 0.325,-0.453 0.674,-0.892 1.042,-1.312 0.305,-0.35 0.298,-0.873 -0.037,-1.196 l -0.033,-0.031 c -0.354,-0.341 -0.921,-0.313 -1.244,0.057 m 20.219,-11.741 -3.299,5.378 c -1.786,-0.247 -3.249,-0.247 -5.035,0 l -3.299,-5.378 -0.634,0.168 c -2.126,0.566 -4.176,1.417 -6.095,2.53 l -0.566,0.329 1.399,5.839 c 0.112,0.472 0.588,0.764 1.06,0.65 0.473,-0.113 0.764,-0.588 0.651,-1.06 l -1.092,-4.555 c 1.425,-0.775 2.923,-1.398 4.468,-1.856 l 3.221,5.254 0.583,-0.095 c 1.868,-0.306 3.774,-0.306 5.642,0 l 0.583,0.095 3.223,-5.254 c 1.544,0.459 3.042,1.081 4.467,1.856 l -1.435,5.985 0.48,0.345 c 1.308,0.94 2.474,2.05 3.474,3.308 0.298,0.373 0.827,0.462 1.214,0.183 0.402,-0.289 0.496,-0.859 0.189,-1.247 -0.985,-1.242 -2.115,-2.354 -3.372,-3.319 l 1.468,-6.129 -0.566,-0.329 c -1.918,-1.113 -3.969,-1.964 -6.095,-2.53 z"
             style="fill:#f0f0f0;fill-opacity:1;fill-rule:nonzero;stroke:none"
             id="path162" />
        </g>
        <g
           id="g164"
           transform="translate(104.3965,280.6104)">
          <path
             d="m 0,0 c -2.887,0.082 -5.293,2.487 -5.376,5.374 -0.083,2.909 2.09,5.338 4.896,5.663 0.339,0.039 0.639,-0.227 0.639,-0.568 V 10.468 C 0.159,10.182 -0.055,9.94 -0.339,9.908 -2.814,9.628 -4.672,7.288 -4.155,4.649 -3.818,2.937 -2.438,1.556 -0.724,1.221 2.088,0.671 4.56,2.82 4.56,5.536 4.56,6.445 4.28,7.325 3.764,8.062 3.601,8.294 3.645,8.612 3.857,8.8 4.113,9.026 4.511,8.978 4.705,8.698 5.348,7.775 5.697,6.673 5.697,5.536 5.697,2.429 3.126,-0.088 0,0 m 13.942,-2.935 -1.46,0.35 c -0.305,0.073 -0.493,0.379 -0.42,0.685 0.073,0.305 0.379,0.493 0.685,0.42 l 0.63,-0.151 c 0.501,0.921 0.903,1.888 1.199,2.886 l -3.393,2.082 0.061,0.376 c 0.109,0.665 0.161,1.262 0.161,1.823 0,0.56 -0.052,1.156 -0.161,1.822 l -0.061,0.377 3.393,2.081 c -0.296,0.998 -0.698,1.965 -1.199,2.886 L 9.511,11.776 9.288,12.085 c -0.714,0.993 -1.584,1.863 -2.577,2.577 l -0.312,0.225 0.927,3.867 c -0.921,0.5 -1.889,0.902 -2.886,1.199 L 2.358,16.56 1.982,16.621 c -1.207,0.195 -2.439,0.195 -3.646,0 L -2.04,16.56 -4.121,19.952 c -0.129,-0.038 -0.259,-0.078 -0.388,-0.12 -0.287,-0.095 -0.598,0.06 -0.702,0.345 -0.11,0.299 0.046,0.635 0.348,0.735 0.284,0.092 0.57,0.177 0.855,0.253 l 0.409,0.109 2.132,-3.475 c 1.159,0.161 2.093,0.161 3.253,0 l 2.131,3.475 0.409,-0.108 C 5.7,20.8 7.024,20.25 8.264,19.531 L 8.63,19.318 7.681,15.358 c 0.866,-0.664 1.637,-1.435 2.301,-2.301 l 3.96,0.949 0.212,-0.366 c 0.72,-1.239 1.269,-2.564 1.635,-3.938 l 0.108,-0.409 -3.474,-2.13 c 0.08,-0.58 0.119,-1.115 0.119,-1.627 0,-0.513 -0.039,-1.048 -0.119,-1.627 L 15.897,1.778 15.789,1.369 C 15.423,-0.005 14.874,-1.33 14.154,-2.569 Z m -23.088,0.317 c -0.179,0.204 -0.352,0.415 -0.518,0.632 l -3.96,-0.949 -0.211,0.366 c -0.72,1.239 -1.27,2.564 -1.635,3.938 l -0.109,0.409 3.475,2.131 c -0.081,0.579 -0.12,1.114 -0.12,1.627 0,0.512 0.039,1.047 0.12,1.627 l -3.475,2.13 0.109,0.409 c 0.365,1.374 0.915,2.699 1.635,3.938 l 0.211,0.366 3.96,-0.949 c 0.664,0.866 1.435,1.637 2.302,2.301 l -0.719,2.997 c -0.073,0.305 0.115,0.611 0.42,0.684 l 0.002,10e-4 c 0.305,0.072 0.611,-0.115 0.684,-0.42 l 0.894,-3.733 -0.312,-0.225 C -7.385,13.948 -8.255,13.078 -8.97,12.085 l -0.222,-0.309 -3.867,0.926 c -0.501,-0.921 -0.902,-1.888 -1.198,-2.886 l 3.393,-2.081 -0.062,-0.377 c -0.108,-0.666 -0.161,-1.262 -0.161,-1.822 0,-0.561 0.053,-1.158 0.161,-1.823 l 0.062,-0.376 -3.393,-2.082 c 0.296,-0.998 0.697,-1.965 1.198,-2.886 l 3.867,0.926 0.222,-0.31 c 0.211,-0.292 0.436,-0.575 0.674,-0.847 0.197,-0.226 0.192,-0.564 -0.024,-0.772 l -0.021,-0.02 c -0.229,-0.221 -0.595,-0.203 -0.805,0.036 m 13.063,-7.585 -2.131,3.474 c -1.155,-0.159 -2.099,-0.159 -3.253,0 l -2.132,-3.474 -0.408,0.109 c -1.374,0.365 -2.699,0.915 -3.938,1.635 l -0.367,0.212 0.904,3.772 c 0.074,0.305 0.381,0.494 0.686,0.42 0.305,-0.073 0.493,-0.38 0.42,-0.685 l -0.705,-2.942 c 0.921,-0.502 1.888,-0.903 2.886,-1.199 l 2.081,3.394 0.377,-0.062 c 1.207,-0.197 2.438,-0.197 3.644,0 l 0.377,0.062 2.082,-3.394 c 0.997,0.296 1.965,0.697 2.886,1.199 l -0.927,3.866 0.31,0.222 c 0.845,0.608 1.598,1.325 2.245,2.138 0.192,0.241 0.533,0.298 0.784,0.118 0.259,-0.186 0.32,-0.555 0.121,-0.806 C 9.224,-2.946 8.494,-3.665 7.681,-4.288 L 8.63,-8.247 8.264,-8.459 C 7.025,-9.179 5.7,-9.729 4.326,-10.094 Z"
             style="fill:#e7e7e7;fill-opacity:1;fill-rule:nonzero;stroke:none"
             id="path166" />
        </g>
      </g>
    </g>
    <g
       id="g168">
      <g
         id="g170"
         clip-path="url(#clipPath174)">
        <g
           id="g176"
           transform="translate(76.6704,293.3667)">
          <path
             d="m 0,0 c 11.271,51.09 62.003,89.298 99.271,89.441 42,0.161 77.792,-31.992 106,-34.839 24.883,-2.512 55.687,34.07 100,24.84 36,-7.498 56,-61.322 50,-95.463 -11.135,-63.358 -40,-101.191 -80.316,-108.51 -17.663,-3.206 -26.005,2.381 -34.684,0.757 -38.631,-7.231 -64.765,-55.668 -148,-59.966 C 28.271,-187.045 -24.437,-110.777 0,0"
             style="fill:#007cff;fill-opacity:1;fill-rule:nonzero;stroke:none"
             id="path178" />
        </g>
        <g
           id="g180">
          <g
             id="g182" />
          <g
             id="g194">
            <g
               clip-path="url(#clipPath186)"
               opacity="0.899994"
               id="g192">
              <g
                 transform="translate(76.6704,293.3667)"
                 id="g190">
                <path
                   d="m 0,0 c 11.271,51.09 62.003,89.298 99.271,89.441 42,0.161 77.792,-31.992 106,-34.839 24.883,-2.512 55.687,34.07 100,24.84 36,-7.498 56,-61.322 50,-95.463 -11.135,-63.358 -40,-101.191 -80.316,-108.51 -17.663,-3.206 -26.005,2.381 -34.684,0.757 -38.631,-7.231 -64.765,-55.668 -148,-59.966 C 28.271,-187.045 -24.437,-110.777 0,0"
                   style="fill:#ffffff;fill-opacity:1;fill-rule:nonzero;stroke:none"
                   id="path188" />
              </g>
            </g>
          </g>
        </g>
      </g>
    </g>
    <g
       id="g196">
      <g
         id="g198"
         clip-path="url(#clipPath202)">
        <g
           id="g204"
           transform="translate(443.8892,84.3076)">
          <path
             d="m 0,0 c 0,-6.254 -86.807,-11.323 -193.889,-11.323 -107.082,0 -193.889,5.069 -193.889,11.323 0,6.253 86.807,11.323 193.889,11.323 C -86.807,11.323 0,6.253 0,0"
             style="fill:#f5f5f5;fill-opacity:1;fill-rule:nonzero;stroke:none"
             id="path206" />
        </g>
      </g>
    </g>
    <g
       id="g208">
      <g
         id="g210"
         clip-path="url(#clipPath214)">
        <g
           id="g216"
           transform="translate(363.4497,354.1733)">
          <path
             d="m 0,0 h -32.561 l -23.031,-263.25 h 32.561 c 9.26,0 17.452,7.534 18.262,16.793 L 15.324,-16.793 C 16.134,-7.533 9.26,0 0,0"
             style="fill:#007cff;fill-opacity:1;fill-rule:nonzero;stroke:none"
             id="path218" />
        </g>
        <g
           id="g220"
           transform="translate(356.8057,354.1733)">
          <path
             d="m 0,0 h -110.199 c -9.26,0 -17.452,-7.533 -18.262,-16.793 l -20.093,-229.664 c -0.81,-9.259 6.064,-16.793 15.324,-16.793 h 110.199 c 9.26,0 17.452,7.534 18.262,16.793 L 15.324,-16.793 C 16.134,-7.533 9.26,0 0,0"
             style="fill:#007cff;fill-opacity:1;fill-rule:nonzero;stroke:none"
             id="path222" />
        </g>
        <g
           id="g224">
          <g
             id="g226" />
          <g
             id="g238">
            <g
               clip-path="url(#clipPath230)"
               opacity="0.300003"
               id="g236">
              <g
                 transform="translate(356.8057,354.1733)"
                 id="g234">
                <path
                   d="m 0,0 h -110.199 c -9.26,0 -17.452,-7.533 -18.262,-16.793 l -20.093,-229.664 c -0.81,-9.259 6.064,-16.793 15.324,-16.793 h 110.199 c 9.26,0 17.452,7.534 18.262,16.793 L 15.324,-16.793 C 16.134,-7.533 9.26,0 0,0"
                   style="fill:#ffffff;fill-opacity:1;fill-rule:nonzero;stroke:none"
                   id="path232" />
              </g>
            </g>
          </g>
        </g>
        <g
           id="g240">
          <g
             id="g242" />
          <g
             id="g254">
            <g
               clip-path="url(#clipPath246)"
               opacity="0.399994"
               id="g252">
              <g
                 transform="translate(356.335,348.7925)"
                 id="g250">
                <path
                   d="m 0,0 h -29.054 c -1.714,0 -3.323,-1.125 -3.958,-2.767 -2.349,-6.069 -8.298,-10.227 -14.634,-10.227 h -17.18 c -6.336,0 -11.558,4.158 -12.845,10.227 v 10e-4 C -78.019,-1.125 -79.432,0 -81.145,0 h -29.054 c -6.303,0 -11.86,-5.109 -12.411,-11.412 l -20.093,-229.664 c -0.551,-6.302 4.111,-11.412 10.414,-11.412 H -22.09 c 6.303,0 11.86,5.11 12.411,11.412 L 10.414,-11.412 C 10.965,-5.109 6.303,0 0,0"
                   style="fill:#ffffff;fill-opacity:1;fill-rule:nonzero;stroke:none"
                   id="path248" />
              </g>
            </g>
          </g>
        </g>
        <g
           id="g256"
           transform="translate(328.8833,224.042)">
          <path
             d="m 0,0 h -77.124 c -2.287,0 -3.979,1.854 -3.778,4.141 l 0.386,4.412 c 0.2,2.287 2.216,4.14 4.502,4.14 H 1.11 c 2.287,0 3.978,-1.853 3.779,-4.14 L 4.502,4.141 C 4.302,1.854 2.287,0 0,0"
             style="fill:#ffffff;fill-opacity:1;fill-rule:nonzero;stroke:none"
             id="path258" />
        </g>
        <g
           id="g260"
           transform="translate(327.2173,205.002)">
          <path
             d="m 0,0 h -77.124 c -2.287,0 -3.978,1.854 -3.778,4.141 l 0.386,4.412 c 0.2,2.287 2.216,4.14 4.502,4.14 H 1.111 c 2.286,0 3.978,-1.853 3.778,-4.14 L 4.503,4.141 C 4.303,1.854 2.287,0 0,0"
             style="fill:#ffffff;fill-opacity:1;fill-rule:nonzero;stroke:none"
             id="path262" />
        </g>
        <g
           id="g264">
          <g
             id="g266" />
          <g
             id="g278">
            <g
               clip-path="url(#clipPath270)"
               opacity="0.100006"
               id="g276">
              <g
                 transform="translate(305.4502,344.4912)"
                 id="g274">
                <path
                   d="m 0,0 c -0.222,-2.536 -2.457,-4.591 -4.993,-4.591 -2.535,0 -4.411,2.055 -4.189,4.591 0.222,2.536 2.457,4.591 4.993,4.591 C -1.654,4.591 0.222,2.536 0,0"
                   style="fill:#000000;fill-opacity:1;fill-rule:nonzero;stroke:none"
                   id="path272" />
              </g>
            </g>
          </g>
        </g>
        <g
           id="g280">
          <g
             id="g282" />
          <g
             id="g294">
            <g
               clip-path="url(#clipPath286)"
               opacity="0.100006"
               id="g292">
              <g
                 transform="translate(303.3672,344.4912)"
                 id="g290">
                <path
                   d="m 0,0 c -0.121,-1.385 -1.342,-2.508 -2.728,-2.508 -1.385,0 -2.41,1.123 -2.288,2.508 0.121,1.385 1.342,2.508 2.727,2.508 C -0.903,2.508 0.121,1.385 0,0"
                   style="fill:#000000;fill-opacity:1;fill-rule:nonzero;stroke:none"
                   id="path288" />
              </g>
            </g>
          </g>
        </g>
        <g
           id="g296">
          <g
             id="g298" />
          <g
             id="g318">
            <g
               clip-path="url(#clipPath302)"
               opacity="0.800003"
               id="g316">
              <g
                 transform="translate(342.7686,336.833)"
                 id="g306">
                <path
                   d="m 0,0 v 0 c -0.743,0 -1.292,0.603 -1.228,1.345 l 0.216,2.459 c 0.065,0.743 0.72,1.346 1.463,1.346 0.743,0 1.292,-0.603 1.227,-1.346 L 1.463,1.345 C 1.398,0.603 0.743,0 0,0"
                   style="fill:#ffffff;fill-opacity:1;fill-rule:nonzero;stroke:none"
                   id="path304" />
              </g>
              <g
                 transform="translate(353.5312,336.833)"
                 id="g310">
                <path
                   d="m 0,0 v 0 c -0.743,0 -1.292,0.603 -1.228,1.345 l 0.505,5.771 c 0.065,0.743 0.721,1.345 1.463,1.345 0.743,0 1.293,-0.602 1.228,-1.345 L 1.463,1.345 C 1.398,0.603 0.743,0 0,0"
                   style="fill:#ffffff;fill-opacity:1;fill-rule:nonzero;stroke:none"
                   id="path308" />
              </g>
              <g
                 transform="translate(348.1499,336.833)"
                 id="g314">
                <path
                   d="m 0,0 v 0 c -0.743,0 -1.292,0.603 -1.228,1.345 l 0.36,4.115 c 0.065,0.743 0.721,1.346 1.464,1.346 0.742,0 1.292,-0.603 1.227,-1.346 L 1.463,1.345 C 1.398,0.603 0.743,0 0,0"
                   style="fill:#ffffff;fill-opacity:1;fill-rule:nonzero;stroke:none"
                   id="path312" />
              </g>
            </g>
          </g>
        </g>
        <g
           id="g320">
          <g
             id="g322" />
          <g
             id="g338">
            <g
               clip-path="url(#clipPath326)"
               opacity="0.800003"
               id="g336">
              <g
                 transform="translate(250.6353,336.833)"
                 id="g330">
                <path
                   d="M 0,0 H -6.755 C -7.176,0 -7.487,0.341 -7.45,0.762 l 0.317,3.626 c 0.037,0.421 0.408,0.762 0.828,0.762 h 6.756 c 0.42,0 0.731,-0.341 0.695,-0.762 L 0.828,0.762 C 0.792,0.341 0.42,0 0,0"
                   style="fill:#ffffff;fill-opacity:1;fill-rule:nonzero;stroke:none"
                   id="path328" />
              </g>
              <g
                 transform="translate(253.7676,337.8169)"
                 id="g334">
                <path
                   d="m 0,0 v 0 c -0.421,0 -0.732,0.341 -0.695,0.761 l 0.145,1.66 c 0.037,0.42 0.407,0.761 0.828,0.761 0.421,0 0.732,-0.341 0.695,-0.761 L 0.828,0.761 C 0.791,0.341 0.42,0 0,0"
                   style="fill:#ffffff;fill-opacity:1;fill-rule:nonzero;stroke:none"
                   id="path332" />
              </g>
            </g>
          </g>
        </g>
        <g
           id="g340"
           transform="translate(327.0967,275.3672)">
          <path
             d="m 0,0 c -1.56,-17.83 -17.279,-32.285 -35.11,-32.285 -17.83,0 -31.02,14.455 -29.46,32.285 1.56,17.831 17.279,32.286 35.11,32.286 C -11.63,32.286 1.56,17.831 0,0"
             style="fill:#ffffff;fill-opacity:1;fill-rule:nonzero;stroke:none"
             id="path342" />
        </g>
        <g
           id="g344"
           transform="translate(294.9214,276.6216)">
          <path
             d="m 0,0 c -8.485,0 -15.647,-3.229 -16.261,-10.243 l -0.68,-7.785 h 30.728 l 0.681,7.785 C 15.082,-3.229 8.485,0 0,0"
             style="fill:#007cff;fill-opacity:1;fill-rule:nonzero;stroke:none"
             id="path346" />
        </g>
        <g
           id="g348"
           transform="translate(295.2017,279.8267)">
          <path
             d="m 0,0 c 3.938,0 5.754,3.192 6.098,7.13 0.345,3.938 -0.912,7.131 -4.85,7.131 -3.938,0 -5.754,-3.193 -6.099,-7.131 C -5.195,3.192 -3.938,0 0,0"
             style="fill:#007cff;fill-opacity:1;fill-rule:nonzero;stroke:none"
             id="path350" />
        </g>
        <g
           id="g352"
           transform="translate(325.3633,230.6162)">
          <path
             d="m 0,0 c -2.096,0 -3.865,-0.798 -4.017,-2.53 l -0.168,-1.923 h 7.59 L 3.573,-2.53 C 3.725,-0.798 2.096,0 0,0"
             style="fill:#007cff;fill-opacity:1;fill-rule:nonzero;stroke:none"
             id="path354" />
        </g>
        <g
           id="g356"
           transform="translate(325.4326,231.4072)">
          <path
             d="m 0,0 c 0.972,0 1.421,0.789 1.506,1.762 0.085,0.972 -0.225,1.76 -1.198,1.76 -0.973,0 -1.421,-0.788 -1.506,-1.76 C -1.284,0.789 -0.973,0 0,0"
             style="fill:#007cff;fill-opacity:1;fill-rule:nonzero;stroke:none"
             id="path358" />
        </g>
        <g
           id="g360"
           transform="translate(301.9941,185.9619)">
          <path
             d="m 0,0 h -30.009 c -3.505,0 -6.098,2.842 -5.791,6.347 0.306,3.505 3.396,6.346 6.902,6.346 H 1.11 c 3.506,0 6.098,-2.841 5.792,-6.346 C 6.595,2.842 3.505,0 0,0"
             style="fill:#007cff;fill-opacity:1;fill-rule:nonzero;stroke:none"
             id="path362" />
        </g>
        <g
           id="g364"
           transform="translate(298.3735,115.1826)">
          <path
             d="m 0,0 h -32.117 c -3.704,0 -6.444,3.003 -6.12,6.707 l 2.049,23.425 c 0.324,3.704 3.59,6.706 7.294,6.706 H 3.223 c 3.704,0 6.444,-3.002 6.12,-6.706 L 7.293,6.707 C 6.969,3.003 3.704,0 0,0"
             style="fill:#007cff;fill-opacity:1;fill-rule:nonzero;stroke:none"
             id="path366" />
        </g>
        <g
           id="g368">
          <g
             id="g370" />
          <g
             id="g382">
            <g
               clip-path="url(#clipPath374)"
               opacity="0.600006"
               id="g380">
              <g
                 transform="translate(288.4692,139.3965)"
                 id="g378">
                <path
                   d="M 0,0 C 0.195,2.229 -1.454,4.036 -3.683,4.036 -5.912,4.036 -7.876,2.229 -8.071,0 -8.188,-1.327 -7.64,-2.495 -6.715,-3.23 l -0.706,-8.066 c -0.116,-1.324 0.863,-2.397 2.187,-2.397 1.324,0 2.491,1.073 2.608,2.397 l 0.705,8.066 C -0.868,-2.494 -0.116,-1.327 0,0"
                   style="fill:#ffffff;fill-opacity:1;fill-rule:nonzero;stroke:none"
                   id="path376" />
              </g>
            </g>
          </g>
        </g>
        <g
           id="g384"
           transform="translate(301.8813,147.1445)">
          <path
             d="m 0,0 h -4.139 l 1.014,11.59 c 0.609,6.965 -4.562,12.631 -11.526,12.631 -6.965,0 -13.126,-5.666 -13.736,-12.631 L -29.401,0 h -4.139 l 1.014,11.59 c 0.809,9.247 8.99,16.77 18.237,16.77 9.247,0 16.112,-7.523 15.303,-16.77 z"
             style="fill:#007cff;fill-opacity:1;fill-rule:nonzero;stroke:none"
             id="path386" />
        </g>
        <g
           id="g388"
           transform="translate(324.0435,215.5312)">
          <path
             d="M 0,0 C 0.856,0 1.491,-0.696 1.417,-1.553 L 1.319,-2.665 h -3.105 l 0.098,1.112 C -1.613,-0.696 -0.856,0 0,0 m 1.828,-2.665 0.097,1.112 c 0.099,1.137 -0.744,2.062 -1.881,2.062 -1.136,0 -2.142,-0.925 -2.241,-2.062 l -0.097,-1.112 c -0.454,-10e-4 -0.854,-0.368 -0.894,-0.822 l -0.258,-2.956 c -0.04,-0.454 0.296,-0.823 0.75,-0.823 h 4.121 c 0.454,0 0.854,0.369 0.894,0.823 l 0.258,2.956 c 0.04,0.454 -0.295,0.821 -0.749,0.822"
             style="fill:#007cff;fill-opacity:1;fill-rule:nonzero;stroke:none"
             id="path390" />
        </g>
        <g
           id="g392"
           transform="translate(263.8472,211.6826)">
          <path
             d="m 0,0 -1.438,0.297 c -0.17,0.035 -0.258,0.214 -0.187,0.382 l 0.599,1.416 C -0.897,2.398 -1.267,2.623 -1.5,2.383 L -2.587,1.264 c -0.129,-0.133 -0.336,-0.133 -0.441,0 L -3.919,2.383 C -4.111,2.623 -4.52,2.398 -4.444,2.095 L -4.093,0.679 C -4.051,0.511 -4.17,0.332 -4.347,0.297 L -5.837,0 c -0.32,-0.064 -0.359,-0.514 -0.051,-0.577 l 1.439,-0.297 c 0.17,-0.035 0.258,-0.214 0.187,-0.382 l -0.599,-1.416 c -0.129,-0.305 0.24,-0.529 0.474,-0.288 l 1.087,1.119 c 0.129,0.133 0.336,0.133 0.441,0 l 0.891,-1.119 c 0.192,-0.241 0.6,-0.017 0.525,0.288 l -0.351,1.416 c -0.042,0.168 0.077,0.347 0.253,0.382 l 1.491,0.297 C 0.27,-0.514 0.309,-0.064 0,0"
             style="fill:#1a2e35;fill-opacity:1;fill-rule:nonzero;stroke:none"
             id="path394" />
        </g>
        <g
           id="g396"
           transform="translate(273.3105,211.6826)">
          <path
             d="m 0,0 -1.438,0.297 c -0.17,0.035 -0.258,0.214 -0.187,0.382 l 0.599,1.416 C -0.898,2.398 -1.268,2.623 -1.5,2.383 L -2.588,1.264 c -0.128,-0.133 -0.335,-0.133 -0.441,0 L -3.92,2.383 c -0.191,0.24 -0.6,0.015 -0.524,-0.288 L -4.093,0.679 C -4.052,0.511 -4.171,0.332 -4.347,0.297 L -5.837,0 c -0.32,-0.064 -0.36,-0.514 -0.051,-0.577 l 1.438,-0.297 c 0.171,-0.035 0.259,-0.214 0.187,-0.382 l -0.598,-1.416 c -0.129,-0.305 0.24,-0.529 0.474,-0.288 l 1.087,1.119 c 0.129,0.133 0.335,0.133 0.441,0 l 0.891,-1.119 c 0.191,-0.241 0.6,-0.017 0.525,0.288 l -0.352,1.416 c -0.041,0.168 0.078,0.347 0.254,0.382 l 1.49,0.297 C 0.27,-0.514 0.309,-0.064 0,0"
             style="fill:#1a2e35;fill-opacity:1;fill-rule:nonzero;stroke:none"
             id="path398" />
        </g>
        <g
           id="g400"
           transform="translate(282.7734,211.6826)">
          <path
             d="m 0,0 -1.438,0.297 c -0.17,0.035 -0.258,0.214 -0.187,0.382 l 0.599,1.416 C -0.897,2.398 -1.267,2.623 -1.5,2.383 L -2.587,1.264 c -0.129,-0.133 -0.336,-0.133 -0.441,0 L -3.919,2.383 C -4.111,2.623 -4.52,2.398 -4.444,2.095 L -4.093,0.679 C -4.052,0.511 -4.17,0.332 -4.347,0.297 L -5.837,0 c -0.32,-0.064 -0.359,-0.514 -0.051,-0.577 l 1.439,-0.297 c 0.17,-0.035 0.258,-0.214 0.187,-0.382 l -0.599,-1.416 c -0.129,-0.305 0.24,-0.529 0.474,-0.288 l 1.087,1.119 c 0.129,0.133 0.336,0.133 0.441,0 l 0.891,-1.119 c 0.192,-0.241 0.6,-0.017 0.525,0.288 l -0.351,1.416 c -0.042,0.168 0.077,0.347 0.253,0.382 l 1.491,0.297 C 0.27,-0.514 0.309,-0.064 0,0"
             style="fill:#1a2e35;fill-opacity:1;fill-rule:nonzero;stroke:none"
             id="path402" />
        </g>
        <g
           id="g404"
           transform="translate(292.2368,211.6826)">
          <path
             d="m 0,0 -1.438,0.297 c -0.17,0.035 -0.258,0.214 -0.187,0.382 l 0.599,1.416 C -0.898,2.398 -1.267,2.623 -1.5,2.383 L -2.587,1.264 c -0.129,-0.133 -0.336,-0.133 -0.442,0 l -0.89,1.119 C -4.111,2.623 -4.52,2.398 -4.444,2.095 L -4.093,0.679 C -4.052,0.511 -4.171,0.332 -4.347,0.297 L -5.837,0 c -0.32,-0.064 -0.36,-0.514 -0.051,-0.577 l 1.438,-0.297 c 0.171,-0.035 0.259,-0.214 0.187,-0.382 l -0.598,-1.416 c -0.129,-0.305 0.24,-0.529 0.474,-0.288 l 1.087,1.119 c 0.128,0.133 0.335,0.133 0.441,0 l 0.891,-1.119 c 0.191,-0.241 0.6,-0.017 0.525,0.288 l -0.351,1.416 c -0.042,0.168 0.077,0.347 0.253,0.382 l 1.49,0.297 C 0.27,-0.514 0.309,-0.064 0,0"
             style="fill:#1a2e35;fill-opacity:1;fill-rule:nonzero;stroke:none"
             id="path406" />
        </g>
        <g
           id="g408"
           transform="translate(301.6997,211.6826)">
          <path
             d="m 0,0 -1.438,0.297 c -0.17,0.035 -0.258,0.214 -0.187,0.382 l 0.599,1.416 C -0.897,2.398 -1.267,2.623 -1.5,2.383 L -2.587,1.264 c -0.129,-0.133 -0.336,-0.133 -0.441,0 L -3.919,2.383 C -4.111,2.623 -4.52,2.398 -4.444,2.095 L -4.093,0.679 C -4.051,0.511 -4.17,0.332 -4.347,0.297 L -5.837,0 c -0.32,-0.064 -0.359,-0.514 -0.051,-0.577 l 1.439,-0.297 c 0.17,-0.035 0.258,-0.214 0.187,-0.382 l -0.599,-1.416 c -0.129,-0.305 0.24,-0.529 0.474,-0.288 l 1.087,1.119 c 0.129,0.133 0.336,0.133 0.441,0 l 0.891,-1.119 c 0.192,-0.241 0.6,-0.017 0.525,0.288 l -0.351,1.416 c -0.042,0.168 0.077,0.347 0.254,0.382 l 1.49,0.297 C 0.27,-0.514 0.309,-0.064 0,0"
             style="fill:#1a2e35;fill-opacity:1;fill-rule:nonzero;stroke:none"
             id="path410" />
        </g>
        <g
           id="g412"
           transform="translate(311.1631,211.6826)">
          <path
             d="m 0,0 -1.438,0.297 c -0.17,0.035 -0.258,0.214 -0.187,0.382 l 0.599,1.416 C -0.898,2.398 -1.267,2.623 -1.5,2.383 L -2.588,1.264 c -0.128,-0.133 -0.335,-0.133 -0.441,0 l -0.89,1.119 C -4.111,2.623 -4.52,2.398 -4.444,2.095 L -4.093,0.679 C -4.052,0.511 -4.171,0.332 -4.347,0.297 L -5.837,0 c -0.32,-0.064 -0.36,-0.514 -0.051,-0.577 l 1.438,-0.297 c 0.171,-0.035 0.259,-0.214 0.187,-0.382 l -0.598,-1.416 c -0.129,-0.305 0.24,-0.529 0.474,-0.288 l 1.087,1.119 c 0.129,0.133 0.335,0.133 0.441,0 l 0.891,-1.119 c 0.191,-0.241 0.6,-0.017 0.525,0.288 l -0.351,1.416 c -0.042,0.168 0.077,0.347 0.253,0.382 l 1.49,0.297 C 0.27,-0.514 0.309,-0.064 0,0"
             style="fill:#1a2e35;fill-opacity:1;fill-rule:nonzero;stroke:none"
             id="path414" />
        </g>
        <g
           id="g416"
           transform="translate(288.353,232.3877)">
          <path
             d="m 0,0 h -17.768 c -1.105,0 -2.078,-0.895 -2.174,-1.999 -0.097,-1.105 0.72,-1.999 1.824,-1.999 H -0.35 c 1.104,0 2.078,0.894 2.174,1.999 C 1.921,-0.895 1.104,0 0,0"
             style="fill:#1a2e35;fill-opacity:1;fill-rule:nonzero;stroke:none"
             id="path418" />
        </g>
        <g
           id="g420"
           transform="translate(306.3901,232.3877)">
          <path
             d="m 0,0 h -10.31 c -1.104,0 -2.077,-0.895 -2.174,-1.999 -0.097,-1.105 0.72,-1.999 1.824,-1.999 h 10.31 c 1.104,0 2.078,0.894 2.174,1.999 C 1.92,-0.895 1.104,0 0,0"
             style="fill:#1a2e35;fill-opacity:1;fill-rule:nonzero;stroke:none"
             id="path422" />
        </g>
        <g
           id="g424"
           transform="translate(320.001,141.7354)">
          <path
             d="m 0,0 c -6.699,-2.675 -12.572,-6.576 -16.592,-11.014 -2.356,2.006 -5.707,3.399 -9.724,4.036 l -0.472,0.076 -0.206,-2.36 0.263,-0.099 c 3.964,-1.499 7.192,-4.157 9.333,-7.686 l 0.336,-0.555 0.372,0.595 c 4.12,6.597 10.128,12.122 16.916,15.56 l 0.23,0.117 0.137,1.567 z"
             style="fill:#1a2e35;fill-opacity:1;fill-rule:nonzero;stroke:none"
             id="path426" />
        </g>
      </g>
    </g>
    <g
       id="g428">
      <g
         id="g430"
         clip-path="url(#clipPath434)">
        <g
           id="g436">
          <g
             id="g438" />
          <g
             id="g450">
            <g
               clip-path="url(#clipPath442)"
               opacity="0.199997"
               id="g448">
              <g
                 transform="translate(230.6445,338.626)"
                 id="g446">
                <path
                   d="m 0,0 c -1.249,-2.197 -2.073,-4.648 -2.3,-7.246 l -14.892,-170.221 h 46.077 l 9.258,35.493 -3.047,35.494 9.257,35.493 -3.047,35.493 L 50.563,0 Z"
                   style="fill:#000000;fill-opacity:1;fill-rule:nonzero;stroke:none"
                   id="path444" />
              </g>
            </g>
          </g>
        </g>
      </g>
    </g>
    <g
       id="g452"
       transform="translate(267.9507,313.1323)">
      <path
         d="M 0,0 9.257,35.493 H -107.267 L -116.524,0 l 3.047,-35.493 -9.258,-35.494 3.047,-35.493 -9.257,-35.493 h 116.524 l 9.257,35.493 -3.047,35.493 9.258,35.494 z"
         style="fill:#007cff;fill-opacity:1;fill-rule:nonzero;stroke:none"
         id="path454" />
    </g>
    <g
       id="g456">
      <g
         id="g458"
         clip-path="url(#clipPath462)">
        <g
           id="g464">
          <g
             id="g466" />
          <g
             id="g478">
            <g
               clip-path="url(#clipPath470)"
               opacity="0.699997"
               id="g476">
              <g
                 transform="translate(267.9507,313.1323)"
                 id="g474">
                <path
                   d="M 0,0 9.257,35.493 H -107.267 L -116.524,0 l 3.047,-35.493 -9.258,-35.494 3.047,-35.493 -9.257,-35.493 h 116.524 l 9.257,35.493 -3.047,35.493 9.258,35.494 z"
                   style="fill:#ffffff;fill-opacity:1;fill-rule:nonzero;stroke:none"
                   id="path472" />
              </g>
            </g>
          </g>
        </g>
        <g
           id="g480">
          <g
             id="g482" />
          <g
             id="g494">
            <g
               clip-path="url(#clipPath486)"
               opacity="0.5"
               id="g492">
              <g
                 transform="translate(267.9502,313.1323)"
                 id="g490">
                <path
                   d="m 0,0 h -116.524 l 9.258,35.493 H 9.258 Z"
                   style="fill:#ffffff;fill-opacity:1;fill-rule:nonzero;stroke:none"
                   id="path488" />
              </g>
            </g>
          </g>
        </g>
        <g
           id="g496">
          <g
             id="g498" />
          <g
             id="g510">
            <g
               clip-path="url(#clipPath502)"
               opacity="0.5"
               id="g508">
              <g
                 transform="translate(261.7397,242.1455)"
                 id="g506">
                <path
                   d="m 0,0 h -116.524 l 9.258,35.494 H 9.258 Z"
                   style="fill:#ffffff;fill-opacity:1;fill-rule:nonzero;stroke:none"
                   id="path504" />
              </g>
            </g>
          </g>
        </g>
        <g
           id="g512">
          <g
             id="g514" />
          <g
             id="g526">
            <g
               clip-path="url(#clipPath518)"
               opacity="0.5"
               id="g524">
              <g
                 transform="translate(255.5293,171.1592)"
                 id="g522">
                <path
                   d="m 0,0 h -116.524 l 9.258,35.493 H 9.258 Z"
                   style="fill:#ffffff;fill-opacity:1;fill-rule:nonzero;stroke:none"
                   id="path520" />
              </g>
            </g>
          </g>
        </g>
        <g
           id="g528">
          <g
             id="g530" />
          <g
             id="g542">
            <g
               clip-path="url(#clipPath534)"
               opacity="0.199997"
               id="g540">
              <g
                 transform="translate(252.3584,298.2998)"
                 id="g538">
                <path
                   d="m 0,0 c -1.001,-0.313 -2.283,-0.5 -3.68,-0.5 -2.058,0 -3.865,0.406 -4.893,1.02 -0.282,0.168 -0.593,0.252 -0.902,0.252 -0.289,0 -0.575,-0.08 -0.841,-0.226 -0.02,-0.011 -0.042,-0.014 -0.061,-0.026 -0.012,-0.007 -0.025,-0.013 -0.037,-0.019 -0.38,-0.222 -0.86,-0.417 -1.421,-0.574 -0.961,-0.269 -2.149,-0.427 -3.435,-0.427 -0.349,0 -0.691,0.011 -1.024,0.034 -0.997,0.067 -1.905,0.231 -2.656,0.466 -0.132,0.041 -0.263,0.065 -0.392,0.074 -0.908,0.06 -1.722,-0.637 -1.722,-1.599 v -1.084 h -45.291 c -3.505,0 -6.347,-2.841 -6.347,-6.347 v -6.396 c 0,-3.505 2.842,-6.347 6.347,-6.347 h 51.527 c 0.114,0 0.224,0.012 0.336,0.017 0.556,-0.46 1.135,-0.919 1.749,-1.383 0.734,-0.557 1.507,-1.121 2.317,-1.708 0.564,-0.409 1.338,-0.409 1.902,0 6.479,4.699 10.639,7.94 10.639,16.845 v 6.403 C 2.115,-0.425 1.049,0.328 0,0"
                   style="fill:#000000;fill-opacity:1;fill-rule:nonzero;stroke:none"
                   id="path536" />
              </g>
            </g>
          </g>
        </g>
        <g
           id="g544"
           transform="translate(236.5464,280.125)">
          <path
             d="m 0,0 h -51.527 c -3.506,0 -6.347,2.842 -6.347,6.347 v 6.396 c 0,3.506 2.841,6.347 6.347,6.347 H 0 c 3.505,0 6.347,-2.841 6.347,-6.347 V 6.347 C 6.347,2.842 3.505,0 0,0"
             style="fill:#007cff;fill-opacity:1;fill-rule:nonzero;stroke:none"
             id="path546" />
        </g>
        <g
           id="g548"
           transform="translate(247.6938,301.3228)">
          <path
             d="m 0,0 c -2.057,0 -3.864,0.407 -4.893,1.021 -0.565,0.337 -1.239,0.337 -1.804,0 C -7.725,0.407 -9.532,0 -11.589,0 c -1.398,0 -2.68,0.188 -3.681,0.5 -1.049,0.329 -2.114,-0.424 -2.114,-1.524 v -6.403 c 0,-8.906 4.16,-12.146 10.638,-16.845 0.564,-0.409 1.338,-0.409 1.902,0 6.479,4.699 10.639,7.939 10.639,16.845 v 6.403 C 5.795,0.076 4.73,0.829 3.68,0.5 2.68,0.188 1.397,0 0,0"
             style="fill:#007cff;fill-opacity:1;fill-rule:nonzero;stroke:none"
             id="path550" />
        </g>
        <g
           id="g552">
          <g
             id="g554" />
          <g
             id="g566">
            <g
               clip-path="url(#clipPath558)"
               opacity="0.300003"
               id="g564">
              <g
                 transform="translate(247.6938,301.3228)"
                 id="g562">
                <path
                   d="m 0,0 c -2.057,0 -3.864,0.407 -4.893,1.021 -0.565,0.337 -1.239,0.337 -1.804,0 C -7.725,0.407 -9.532,0 -11.589,0 c -1.398,0 -2.68,0.188 -3.681,0.5 -1.049,0.329 -2.114,-0.424 -2.114,-1.524 v -6.403 c 0,-8.906 4.16,-12.146 10.638,-16.845 0.564,-0.409 1.338,-0.409 1.902,0 6.479,4.699 10.639,7.939 10.639,16.845 v 6.403 C 5.795,0.076 4.73,0.829 3.68,0.5 2.68,0.188 1.397,0 0,0"
                   style="fill:#ffffff;fill-opacity:1;fill-rule:nonzero;stroke:none"
                   id="path560" />
              </g>
            </g>
          </g>
        </g>
        <g
           id="g568">
          <g
             id="g570" />
          <g
             id="g582">
            <g
               clip-path="url(#clipPath574)"
               opacity="0.199997"
               id="g580">
              <g
                 transform="translate(240.9971,302.3433)"
                 id="g578">
                <path
                   d="m 0,0 c -1.028,-0.613 -2.835,-1.021 -4.893,-1.021 -1.397,0 -2.679,0.188 -3.68,0.501 -1.05,0.328 -2.115,-0.425 -2.115,-1.524 v -6.404 c 0,-8.905 4.161,-12.146 10.639,-16.845 0.282,-0.205 0.616,-0.307 0.951,-0.307 V 0.253 C 0.592,0.253 0.282,0.169 0,0"
                   style="fill:#ffffff;fill-opacity:1;fill-rule:nonzero;stroke:none"
                   id="path576" />
              </g>
            </g>
          </g>
        </g>
        <g
           id="g584"
           transform="translate(251.1865,295.6426)">
          <path
             d="m 0,0 c -4.187,-1.732 -7.77,-4.259 -10.122,-7.133 -1.639,1.299 -3.889,2.201 -6.526,2.614 l -0.31,0.048 v -1.528 l 0.176,-0.064 c 2.653,-0.971 4.893,-2.692 6.48,-4.978 l 0.249,-0.359 0.207,0.385 c 2.295,4.272 5.873,7.851 10.074,10.078 l 0.143,0.075 v 1.015 z"
             style="fill:#1a2e35;fill-opacity:1;fill-rule:nonzero;stroke:none"
             id="path586" />
        </g>
        <g
           id="g588"
           transform="translate(275.1509,338.6445)">
          <path
             d="m 0,0 h -4.421 c -2.452,0 -4.265,1.987 -4.051,4.439 l 0.387,4.421 c 0.215,2.452 2.376,4.439 4.828,4.439 h 4.421 c 2.451,0 4.265,-1.987 4.05,-4.439 L 4.828,4.439 C 4.613,1.987 2.452,0 0,0"
             style="fill:#007cff;fill-opacity:1;fill-rule:nonzero;stroke:none"
             id="path590" />
        </g>
        <g
           id="g592"
           transform="translate(276.9883,347.5142)">
          <path
             d="M 0,0 -0.959,1.052 -3.374,-1.168 -5.4,1.052 -6.544,0 l 2.026,-2.22 -2.414,-2.22 0.959,-1.052 2.415,2.22 2.026,-2.22 1.144,1.052 -2.026,2.22 z"
             style="fill:#ffffff;fill-opacity:1;fill-rule:nonzero;stroke:none"
             id="path594" />
        </g>
      </g>
    </g>
    <g
       id="g596">
      <g
         id="g598"
         clip-path="url(#clipPath602)">
        <g
           id="g604"
           transform="translate(176.3716,300.5063)">
          <path
             d="m 0,0 c 2.563,-2.787 5.012,-5.674 7.43,-8.588 2.421,-2.911 4.782,-5.874 7.114,-8.862 0.102,-0.131 0.061,-0.078 0.085,-0.116 0.012,-0.017 0.014,-0.045 0.028,-0.059 0.026,-0.029 0.04,-0.077 0.071,-0.103 0.046,-0.074 0.112,-0.126 0.179,-0.197 0.142,-0.127 0.337,-0.224 0.553,-0.263 0.106,-0.017 0.22,-0.032 0.335,-0.02 0.062,-0.008 0.117,0.011 0.182,0.013 0.034,-0.001 0.06,0.017 0.092,0.021 0.051,0.022 0.019,-0.023 0.157,0.059 l 2.504,1.358 c 3.361,1.778 6.748,3.518 10.251,5.079 l 2.928,-3.626 c -2.822,-2.597 -5.762,-5.844 -8.726,-8.224 l -2.24,-1.762 c -0.057,-0.052 -0.298,-0.209 -0.449,-0.311 -0.173,-0.11 -0.342,-0.231 -0.524,-0.328 -0.364,-0.2 -0.729,-0.4 -1.118,-0.554 -0.768,-0.332 -1.588,-0.543 -2.419,-0.671 -1.667,-0.248 -3.399,-0.081 -5.016,0.498 -0.806,0.291 -1.587,0.677 -2.297,1.172 -0.365,0.236 -0.697,0.513 -1.03,0.792 -0.167,0.138 -0.316,0.295 -0.472,0.444 l -0.399,0.404 c -2.646,2.714 -5.263,5.454 -7.821,8.245 -2.56,2.79 -5.09,5.606 -7.505,8.522 z"
             style="fill:#ce5b51;fill-opacity:1;fill-rule:nonzero;stroke:none"
             id="path606" />
        </g>
        <g
           id="g608"
           transform="translate(203.9902,286.6187)">
          <path
             d="M 0,0 2.332,7.487 8.468,4.43 c 0,0 -0.894,-5.464 -5.361,-6.411 z"
             style="fill:#ce5b51;fill-opacity:1;fill-rule:nonzero;stroke:none"
             id="path610" />
        </g>
        <g
           id="g612"
           transform="translate(208.7827,296.1816)">
          <path
             d="m 0,0 5.535,-1.523 -1.86,-3.61 -6.136,3.057 z"
             style="fill:#ce5b51;fill-opacity:1;fill-rule:nonzero;stroke:none"
             id="path614" />
        </g>
        <g
           id="g616"
           transform="translate(144.0942,298.4663)">
          <path
             d="m 0,0 c -0.668,-3.181 -1.484,-6.327 -2.339,-9.462 -0.851,-3.138 -1.78,-6.256 -2.746,-9.365 l -0.36,-1.166 -0.18,-0.584 c -0.038,-0.127 -0.062,-0.158 -0.097,-0.244 -0.11,-0.295 -0.176,-0.615 -0.19,-0.95 -0.017,-0.667 0.141,-1.408 0.577,-2.051 0.036,-0.104 0.381,-0.466 0.65,-0.758 l 0.831,-0.903 1.636,-1.833 c 1.078,-1.237 2.152,-2.478 3.172,-3.783 l -3.485,-4.033 c -1.439,0.819 -2.823,1.701 -4.203,2.589 l -2.052,1.352 -1.013,0.691 c -0.346,0.24 -0.623,0.4 -1.175,0.857 -1.901,1.613 -3.322,3.903 -3.843,6.447 -0.266,1.268 -0.331,2.592 -0.183,3.901 0.039,0.314 0.098,0.68 0.146,0.949 l 0.106,0.601 0.212,1.203 c 0.561,3.207 1.16,6.405 1.835,9.584 0.671,3.18 1.382,6.351 2.241,9.486 z"
             style="fill:#ce5b51;fill-opacity:1;fill-rule:nonzero;stroke:none"
             id="path618" />
        </g>
        <g
           id="g620"
           transform="translate(141.625,267.6543)">
          <path
             d="m 0,0 4.126,2.109 1.82,-7.012 c 0,0 -3.312,-1.27 -5.874,0.36 z"
             style="fill:#ce5b51;fill-opacity:1;fill-rule:nonzero;stroke:none"
             id="path622" />
        </g>
        <g
           id="g624"
           transform="translate(151.4517,272.0073)">
          <path
             d="M 0,0 0.187,-6.434 -4.419,-9.447 -6.018,-2.38 Z"
             style="fill:#ce5b51;fill-opacity:1;fill-rule:nonzero;stroke:none"
             id="path626" />
        </g>
        <g
           id="g628"
           transform="translate(164.9424,331.5312)">
          <path
             d="M 0,0 C 0.101,-0.496 0.445,-0.844 0.769,-0.778 1.093,-0.712 1.274,-0.257 1.173,0.238 1.072,0.734 0.728,1.083 0.404,1.017 0.08,0.951 -0.101,0.496 0,0"
             style="fill:#1a2e35;fill-opacity:1;fill-rule:nonzero;stroke:none"
             id="path630" />
        </g>
        <g
           id="g632"
           transform="translate(165.3418,330.6782)">
          <path
             d="M 0,0 C 0,0 1.708,-2.63 3.229,-3.758 2.519,-4.754 0.952,-4.683 0.952,-4.683 Z"
             style="fill:#bb221f;fill-opacity:1;fill-rule:nonzero;stroke:none"
             id="path634" />
        </g>
        <g
           id="g636"
           transform="translate(162.5684,333.9146)">
          <path
             d="M 0,0 C -0.072,0 -0.145,0.026 -0.202,0.079 -0.322,0.19 -0.33,0.378 -0.218,0.499 0.897,1.706 2.25,1.491 2.309,1.481 2.471,1.454 2.579,1.3 2.552,1.139 2.524,0.977 2.369,0.87 2.21,0.896 2.166,0.903 1.108,1.058 0.218,0.095 0.16,0.032 0.08,0 0,0"
             style="fill:#1a2e35;fill-opacity:1;fill-rule:nonzero;stroke:none"
             id="path638" />
        </g>
        <g
           id="g640"
           transform="translate(150.521,324.5605)">
          <path
             d="m 0,0 c 1.103,-4.587 2.204,-12.992 -1.733,-16.053 0,0 1.538,-4.653 11.995,-4.653 11.499,0 5.495,2.998 5.495,2.998 -6.275,1.221 -6.113,6.671 -5.02,10.235 z"
             style="fill:#ce5b51;fill-opacity:1;fill-rule:nonzero;stroke:none"
             id="path642" />
        </g>
        <g
           id="g644"
           transform="translate(147.563,307.6572)">
          <path
             d="m 0,0 c -0.685,1.274 -1.439,2.733 0.121,3.19 1.717,0.502 12.748,1.435 15.988,0.491 -0.995,-1.771 0.69,-3.948 0.69,-3.948 z"
             style="fill:#1a2e35;fill-opacity:1;fill-rule:nonzero;stroke:none"
             id="path646" />
        </g>
        <g
           id="g648"
           transform="translate(156.6958,93.0811)">
          <path
             d="M 0,0 H 7.215 L 7.934,14.521 H 0.719 Z"
             style="fill:#ce5b51;fill-opacity:1;fill-rule:nonzero;stroke:none"
             id="path650" />
        </g>
        <g
           id="g652"
           transform="translate(110.9131,95.0811)">
          <path
             d="m 0,0 7.308,-0.387 4.44,14.306 -7.308,0.387 z"
             style="fill:#ce5b51;fill-opacity:1;fill-rule:nonzero;stroke:none"
             id="path654" />
        </g>
        <g
           id="g656"
           transform="translate(117.9971,95.2725)">
          <path
             d="M 0,0 -6.885,1.491 C -7.135,1.545 -7.39,1.418 -7.497,1.186 L -9.887,-4 c -0.248,-0.538 0.08,-1.169 0.661,-1.284 2.413,-0.479 3.611,-0.591 6.639,-1.246 1.862,-0.404 6.067,-1.428 8.639,-1.985 2.516,-0.545 3.459,1.914 2.456,2.372 C 4.01,-4.088 2.131,-2.278 0.913,-0.592 0.694,-0.288 0.366,-0.079 0,0"
             style="fill:#1a2e35;fill-opacity:1;fill-rule:nonzero;stroke:none"
             id="path658" />
        </g>
        <g
           id="g660"
           transform="translate(163.5288,93.8076)">
          <path
             d="M 0,0 H -6.847 C -7.104,0 -7.325,-0.179 -7.381,-0.429 L -8.62,-6.002 c -0.128,-0.577 0.311,-1.125 0.903,-1.115 2.469,0.042 6.039,0.186 9.143,0.186 3.63,0 6.765,-0.197 11.022,-0.197 2.574,0 3.289,2.602 2.212,2.838 C 9.754,-3.217 5.75,-3.103 1.511,-0.489 1.05,-0.205 0.542,0 0,0"
             style="fill:#1a2e35;fill-opacity:1;fill-rule:nonzero;stroke:none"
             id="path662" />
        </g>
        <g
           id="g664"
           transform="translate(135.7246,306.3877)">
          <path
             d="m 0,0 c -5.445,-2.589 -6.924,-18.284 -6.924,-18.284 l 13.469,-6.224 c 0,0 3.344,4.925 3.6,12.669 C 10.413,-3.726 5.567,2.647 0,0"
             style="fill:#1a2e35;fill-opacity:1;fill-rule:nonzero;stroke:none"
             id="path666" />
        </g>
        <g
           id="g668">
          <g
             id="g670" />
          <g
             id="g682">
            <g
               clip-path="url(#clipPath674)"
               opacity="0.399994"
               id="g680">
              <g
                 transform="translate(143.0322,296.7085)"
                 id="g678">
                <path
                   d="m 0,0 c -2.432,-3.774 -2.202,-9.616 -1.36,-14.552 l 0.595,-0.279 c 0,0 3.347,4.931 3.605,12.672 0.014,0.485 0.013,0.965 -0.004,1.434 z"
                   style="fill:#000000;fill-opacity:1;fill-rule:nonzero;stroke:none"
                   id="path676" />
              </g>
            </g>
          </g>
        </g>
        <g
           id="g684"
           transform="translate(173.3125,306.7671)">
          <path
             d="m 0,0 c 0,0 6.673,-7.538 0.371,-54.195 h -33.537 c -0.23,5.149 3.004,30.261 -1.961,54.518 0,0 5.749,1.154 11.227,1.418 4.285,0.206 10.488,0.343 14.255,-0.001 C -4.678,1.287 0,0 0,0"
             style="fill:#007cff;fill-opacity:1;fill-rule:nonzero;stroke:none"
             id="path686" />
        </g>
        <g
           id="g688">
          <g
             id="g690" />
          <g
             id="g702">
            <g
               clip-path="url(#clipPath694)"
               opacity="0.600006"
               id="g700">
              <g
                 transform="translate(173.3125,306.7671)"
                 id="g698">
                <path
                   d="m 0,0 c 0,0 6.673,-7.538 0.371,-54.195 h -33.537 c -0.23,5.149 3.004,30.261 -1.961,54.518 0,0 5.749,1.154 11.227,1.418 4.285,0.206 10.488,0.343 14.255,-0.001 C -4.678,1.287 0,0 0,0"
                   style="fill:#fafafa;fill-opacity:1;fill-rule:nonzero;stroke:none"
                   id="path696" />
              </g>
            </g>
          </g>
        </g>
        <g
           id="g704">
          <g
             id="g706" />
          <g
             id="g718">
            <g
               clip-path="url(#clipPath710)"
               opacity="0.199997"
               id="g716">
              <g
                 transform="translate(176.2437,292.5073)"
                 id="g714">
                <path
                   d="M 0,0 -0.128,0.111 -6.797,3.674 C -7.475,-6.595 -2.885,-13.033 -0.153,-15.85 0.222,-9.269 0.213,-4.08 0,0"
                   style="fill:#000000;fill-opacity:1;fill-rule:nonzero;stroke:none"
                   id="path712" />
              </g>
            </g>
          </g>
        </g>
        <g
           id="g720">
          <g
             id="g722" />
          <g
             id="g734">
            <g
               clip-path="url(#clipPath726)"
               opacity="0.199997"
               id="g732">
              <g
                 transform="translate(164.6274,107.5977)"
                 id="g730">
                <path
                   d="M 0,0 -0.369,-7.484 H -7.586 L -7.218,0 Z"
                   style="fill:#000000;fill-opacity:1;fill-rule:nonzero;stroke:none"
                   id="path728" />
              </g>
            </g>
          </g>
        </g>
        <g
           id="g736">
          <g
             id="g738" />
          <g
             id="g750">
            <g
               clip-path="url(#clipPath742)"
               opacity="0.199997"
               id="g748">
              <g
                 transform="translate(115.3506,109.3828)"
                 id="g746">
                <path
                   d="M 0,0 7.311,-0.387 5.018,-7.76 -2.292,-7.373 Z"
                   style="fill:#000000;fill-opacity:1;fill-rule:nonzero;stroke:none"
                   id="path744" />
              </g>
            </g>
          </g>
        </g>
        <g
           id="g752"
           transform="translate(148.1987,329.2222)">
          <path
             d="m 0,0 c 1.611,-6.011 2.248,-9.611 5.958,-12.11 5.579,-3.76 12.525,0.555 12.743,6.926 C 18.896,0.55 16.229,9.417 9.779,10.628 3.424,11.821 -1.611,6.01 0,0"
             style="fill:#ce5b51;fill-opacity:1;fill-rule:nonzero;stroke:none"
             id="path754" />
        </g>
        <g
           id="g756"
           transform="translate(161.7871,252.5723)">
          <path
             d="m 0,0 c 0,0 -7.116,-47.917 -11.022,-65.869 -4.278,-19.658 -27.216,-84.697 -27.216,-84.697 l -11.224,2.429 c 0,0 14.383,53.003 17.974,80.487 1.401,10.724 3.092,28.011 5.232,42.426 C -24.184,-11.265 -21.64,0 -21.64,0 Z"
             style="fill:#1a2e35;fill-opacity:1;fill-rule:nonzero;stroke:none"
             id="path758" />
        </g>
        <g
           id="g760"
           transform="translate(126.2363,105.7529)">
          <path
             d="m 0,0 c 0.048,-0.011 -2.092,-4.06 -2.092,-4.06 l -12.628,2.735 1.064,3.796 z"
             style="fill:#007cff;fill-opacity:1;fill-rule:nonzero;stroke:none"
             id="path762" />
        </g>
        <g
           id="g764">
          <g
             id="g766" />
          <g
             id="g778">
            <g
               clip-path="url(#clipPath770)"
               opacity="0.600006"
               id="g776">
              <g
                 transform="translate(126.2363,105.7529)"
                 id="g774">
                <path
                   d="m 0,0 c 0.048,-0.011 -2.092,-4.06 -2.092,-4.06 l -12.628,2.735 1.064,3.796 z"
                   style="fill:#ffffff;fill-opacity:1;fill-rule:nonzero;stroke:none"
                   id="path772" />
              </g>
            </g>
          </g>
        </g>
        <g
           id="g780">
          <g
             id="g782" />
          <g
             id="g794">
            <g
               clip-path="url(#clipPath786)"
               opacity="0.600006"
               id="g792">
              <g
                 transform="translate(157.29,235.499)"
                 id="g790">
                <path
                   d="m 0,0 c -8.228,-1.612 -7.357,-32.296 -6.367,-48.077 2.372,11.155 5.846,32.621 8.219,47.855 C 1.306,0.052 0.691,0.137 0,0"
                   style="fill:#000000;fill-opacity:1;fill-rule:nonzero;stroke:none"
                   id="path788" />
              </g>
            </g>
          </g>
        </g>
        <g
           id="g796"
           transform="translate(173.6836,252.5723)">
          <path
             d="M 0,0 C 0,0 3.347,-46.88 2.665,-66.001 1.956,-85.89 -7.475,-151.01 -7.475,-151.01 h -10.621 c 0,0 -0.39,63.959 -0.862,83.491 C -19.474,-46.225 -22.045,0 -22.045,0 Z"
             style="fill:#1a2e35;fill-opacity:1;fill-rule:nonzero;stroke:none"
             id="path798" />
        </g>
        <g
           id="g800"
           transform="translate(168.2529,105.793)">
          <path
             d="M 0,0 C 0.049,0 -0.599,-4.409 -0.599,-4.409 H -13.52 l -0.349,3.935 z"
             style="fill:#007cff;fill-opacity:1;fill-rule:nonzero;stroke:none"
             id="path802" />
        </g>
        <g
           id="g804">
          <g
             id="g806" />
          <g
             id="g818">
            <g
               clip-path="url(#clipPath810)"
               opacity="0.600006"
               id="g816">
              <g
                 transform="translate(168.2529,105.793)"
                 id="g814">
                <path
                   d="M 0,0 C 0.049,0 -0.599,-4.409 -0.599,-4.409 H -13.52 l -0.349,3.935 z"
                   style="fill:#ffffff;fill-opacity:1;fill-rule:nonzero;stroke:none"
                   id="path812" />
              </g>
            </g>
          </g>
        </g>
        <g
           id="g820"
           transform="translate(169.3989,297.9849)">
          <path
             d="m 0,0 c 0,-12.582 6.695,-17.761 6.695,-17.761 l 10.882,10.639 c 0,0 -3.7,6.374 -8.789,12.227 C 2.502,12.334 0,8.09 0,0"
             style="fill:#1a2e35;fill-opacity:1;fill-rule:nonzero;stroke:none"
             id="path822" />
        </g>
        <g
           id="g824">
          <g
             id="g826" />
          <g
             id="g838">
            <g
               clip-path="url(#clipPath830)"
               opacity="0.199997"
               id="g836">
              <g
                 transform="translate(166.519,321.7607)"
                 id="g834">
                <path
                   d="m 0,0 c -0.276,-0.771 -1.001,-2.078 -2.821,-2.599 -2.657,-0.76 -2.691,-3.01 -2.691,-3.01 l 0.033,-0.042 C -2.946,-4.814 -0.836,-2.721 0,0"
                   style="fill:#000000;fill-opacity:1;fill-rule:nonzero;stroke:none"
                   id="path832" />
              </g>
            </g>
          </g>
        </g>
        <g
           id="g840"
           transform="translate(163.6978,341.1685)">
          <path
             d="M 0,0 C 2.242,2.827 -1.208,2.962 -1.208,2.962 -0.312,6.336 -4.346,4.52 -4.346,4.52 -6.768,7.858 -8.134,3.795 -8.134,3.795 c -2.512,2.829 -2.973,-1.793 -2.973,-1.793 -2.519,3.587 -3.803,-1.586 -3.803,-1.586 -2.32,3.725 -3.739,-1.129 -3.739,-1.129 -4.79,1.714 -2.514,-3.263 -2.514,-3.263 -4.089,-0.115 -0.809,-3.278 -0.809,-3.278 -4.898,-0.012 -0.578,-2.817 -0.578,-2.817 -3.89,-2.552 0.992,-3.239 0.992,-3.239 -3.173,-4.963 2.277,-3.122 2.277,-3.122 -2.208,-4.912 2.688,-2.748 2.688,-2.748 -0.318,-4.74 2.42,-3.45 3.736,-2.572 0.254,-0.955 0.728,-1.966 1.607,-2.081 1.708,-0.223 2.041,3 2.041,3 0,0 1.585,-1.232 2.914,-0.564 1.328,0.668 0.827,2.358 0.827,2.358 0,0 1.018,-0.758 1.949,-0.034 0.571,0.443 0.573,3.626 -0.153,4.745 l 2.603,1.018 c 0,0 1.932,0.273 1.069,2.82 -0.862,2.546 -0.131,4.556 -0.131,4.556 2.938,1.378 0.527,3.033 0.527,3.033 C 3.794,-0.699 0,0 0,0"
             style="fill:#1a2e35;fill-opacity:1;fill-rule:nonzero;stroke:none"
             id="path842" />
        </g>
        <g
           id="g844"
           transform="translate(158.4253,328.9702)">
          <path
             d="M 0,0 C 0.409,-1.578 1.446,-2.935 2.53,-3.742 4.162,-4.956 5.381,-3.761 5.265,-1.914 5.161,-0.252 4.186,2.382 2.386,2.875 0.612,3.36 -0.468,1.804 0,0"
             style="fill:#ce5b51;fill-opacity:1;fill-rule:nonzero;stroke:none"
             id="path846" />
        </g>
      </g>
    </g>
  </g>
</svg>
